<svg xmlns="http://www.w3.org/2000/svg" viewBox="0 0 2.37 7.13"><defs><style>.cls-1{fill:#444;}</style></defs><g id="Layer_2" data-name="Layer 2"><g id="Layer_1-2" data-name="Layer 1"><path class="cls-1" d="M2.11,7.13H2c-.85,0-1.28-.34-1.28-1V4.18q0-.39-.42-.39H.25A.23.23,0,0,1,0,3.58v0a.24.24,0,0,1,.25-.21H.32C.6,3.33.74,3.21.74,3V1C.74.34,1.17,0,2,0h.09a.24.24,0,0,1,.26.21v0a.25.25,0,0,1-.26.21A.82.82,0,0,0,1.58.6a.57.57,0,0,0-.18.46V2.94a.69.69,0,0,1-.1.42l-.06.06a.18.18,0,0,0,0,.28l.06.07a.69.69,0,0,1,.1.42V6.07c0,.4.24.61.71.61a.26.26,0,0,1,.18.06.19.19,0,0,1,.08.15v0A.25.25,0,0,1,2.11,7.13Z"/></g></g></svg>