<svg xmlns="http://www.w3.org/2000/svg" xmlns:xlink="http://www.w3.org/1999/xlink" viewBox="0 0 95.71 100.89"><defs><style>.cls-1{fill:#ddd;}.cls-2{fill:none;}.cls-3{fill:#cebd5b;}.cls-4{fill:#f9e573;}.cls-5{clip-path:url(#clip-path);}.cls-6{fill:#bfd5db;}.cls-7{fill:#606060;}.cls-8{fill:#919191;}.cls-9{clip-path:url(#clip-path-2);}.cls-10{fill:#36c2da;}.cls-11{clip-path:url(#clip-path-3);}.cls-12{clip-path:url(#clip-path-4);}.cls-13{fill:#b2c5cc;}.cls-14{fill:#adc0c7;}.cls-15{fill:#a9bbc2;}.cls-16{fill:#a4b6bd;}.cls-17{fill:#a0b1b8;}.cls-18{fill:#9bacb4;}.cls-19{fill:#96a7ad;}.cls-20{fill:#93a2a8;}.cls-21{fill:#8e9da3;}.cls-22{fill:#8a999e;}.cls-23{fill:#859499;}.cls-24{fill:#818f94;}.cls-25{fill:#7c8a8f;}.cls-26{fill:#78858a;}.cls-27{fill:#738085;}.cls-28{clip-path:url(#clip-path-5);}.cls-29{fill:#30b4ca;}.cls-30{fill:#2fb0c5;}.cls-31{fill:#2eacc0;}.cls-32{fill:#2da7bb;}.cls-33{fill:#2ca3b6;}.cls-34{fill:#2a9eb1;}.cls-35{fill:#2a9aac;}.cls-36{fill:#2995a7;}.cls-37{fill:#2891a2;}.cls-38{fill:#278c9d;}.cls-39{clip-path:url(#clip-path-6);}.cls-40{clip-path:url(#clip-path-7);}.cls-41{fill:#227684;}.cls-42{fill:#227a89;}.cls-43{fill:#237f8e;}.cls-44{fill:#248393;}.cls-45{fill:#258898;}.cls-46{fill:#444;}.cls-47{fill:#abbec5;}.cls-48{fill:#bfd5dc;}.cls-49{fill:#36a0b7;}.cls-50{fill:#3190a4;}.cls-51{fill:#fff;}.cls-52{clip-path:url(#clip-path-8);}.cls-53{fill:#862858;}.cls-54{fill:#8b295d;}.cls-55{fill:#902c60;}.cls-56{fill:#952d64;}.cls-57{fill:#9a2e66;}.cls-58{fill:#9f2f69;}.cls-59{fill:#a4306d;}.cls-60{clip-path:url(#clip-path-9);}.cls-61{fill:#818184;}.cls-62{fill:#868689;}.cls-63{fill:#8b8b8e;}.cls-64{clip-path:url(#clip-path-10);}.cls-65{fill:#b9387a;}.cls-66{fill:#dd4293;}.cls-67{clip-path:url(#clip-path-11);}.cls-68{fill:#a93170;}.cls-69{fill:#ad3474;}.cls-70{fill:#b33677;}.cls-71{fill:#be387f;}.cls-72{fill:#c33b82;}.cls-73{fill:#c73c86;}.cls-74{fill:#cc3e88;}.cls-75{fill:#d23e8c;}.cls-76{fill:#d7418f;}.cls-77{fill:#db4292;}.cls-78{fill:#e04496;}.cls-79{fill:#e54699;}.cls-80{fill:#e8489a;}.cls-81{fill:#eb4b9b;}.cls-82{fill:#ee4e9c;}.cls-83{clip-path:url(#clip-path-12);}.cls-84{fill:#f9fafd;}.cls-85{fill:#fafbfe;}.cls-86{fill:#f7f9fc;}.cls-87{fill:#f3f4f8;}.cls-88{fill:#efeff2;}.cls-89{fill:#e9eaed;}.cls-90{fill:#e4e5e9;}.cls-91{fill:#dfe0e4;}.cls-92{fill:#dadbdf;}.cls-93{fill:#d5d6da;}.cls-94{fill:#d0d1d5;}.cls-95{fill:#cbcccf;}.cls-96{fill:#c6c7c9;}.cls-97{fill:#c2c2c5;}.cls-98{clip-path:url(#clip-path-13);}.cls-99{fill:#909093;}.cls-100{fill:#959598;}.cls-101{fill:#9a9a9d;}.cls-102{fill:#9e9ea1;}.cls-103{fill:#a3a3a6;}.cls-104{fill:#aaa9ac;}.cls-105{fill:#afaeb1;}.cls-106{fill:#b3b3b6;}.cls-107{fill:#b8b8bb;}.cls-108{fill:#bcbdc0;}.cls-109{clip-path:url(#clip-path-14);}.cls-110{fill:#e0bb24;}.cls-111{fill:#fedf00;}.cls-112{clip-path:url(#clip-path-15);}.cls-113{clip-path:url(#clip-path-16);}.cls-114{clip-path:url(#clip-path-17);}.cls-115{clip-path:url(#clip-path-18);}.cls-116{clip-path:url(#clip-path-19);}.cls-117{clip-path:url(#clip-path-20);}.cls-118{clip-path:url(#clip-path-21);}.cls-119{fill:#dff3fd;}.cls-120{fill:#cbdfe8;}.cls-121{fill:#efb184;}.cls-122{fill:#aeced8;}.cls-123{fill:#131315;}.cls-124{fill:#2b3c4b;}.cls-125{fill:#314656;}.cls-126{fill:#dd9569;}.cls-127{fill:#e7a376;}.cls-128{fill:#24160c;}.cls-129{fill:#331d0f;}.cls-130{fill:#def0f9;}</style><clipPath id="clip-path"><polyline class="cls-1" points="39.99 97.21 0 74.12 36.59 55.24 76.16 77.56 39.99 97.21"/></clipPath><clipPath id="clip-path-2"><polygon class="cls-3" points="37.46 88.88 33.65 86.67 33.47 25.57 37.29 27.78 37.46 88.88 37.46 88.88"/></clipPath><clipPath id="clip-path-3"><polygon class="cls-4" points="73.36 6.96 73.54 68.05 37.46 88.88 37.29 27.78 73.36 6.96 73.36 6.96"/></clipPath><clipPath id="clip-path-4"><path class="cls-2" d="M59.65,7.71a.52.52,0,0,0-.21-.47l3.81,2.22a.51.51,0,0,1,.21.46h0l-.27-.16L63,9.68l-.89-.52-1.28-.74-1.22-.71,3.81,2.21a1.61,1.61,0,0,1-.71,1.25L58.93,9a1.57,1.57,0,0,0,.72-1.24"/></clipPath><clipPath id="clip-path-5"><path class="cls-2" d="M59.44,7.24l.19.12,3.62,2.1a.53.53,0,0,0-.51,0L58.93,7.3a.51.51,0,0,1,.51-.06"/></clipPath><clipPath id="clip-path-6"><path class="cls-2" d="M42.87,18a.51.51,0,0,0,.51-.05l3.82,2.21a.53.53,0,0,1-.52.06L42.87,18"/></clipPath><clipPath id="clip-path-7"><path class="cls-2" d="M46.68,20.2,42.87,18a.51.51,0,0,1-.21-.46,1.61,1.61,0,0,1,.72-1.25l3.81,2.22a1.59,1.59,0,0,0-.72,1.24.52.52,0,0,0,.21.47"/></clipPath><clipPath id="clip-path-8"><path class="cls-2" d="M83.28,13.81A1.59,1.59,0,0,1,83.94,15l.88.51a1.59,1.59,0,0,0-.66-1.22l-.88-.51"/></clipPath><clipPath id="clip-path-9"><path class="cls-2" d="M84.16,14.32l-.88-.51A.92.92,0,0,0,83,13.7l.88.51a.76.76,0,0,1,.33.11"/></clipPath><clipPath id="clip-path-10"><path class="cls-2" d="M83.09,13l.5.29,0,0,.06,0,.06,0,.21.12L83.09,13"/></clipPath><clipPath id="clip-path-11"><path class="cls-2" d="M83,13.7l.88.51a1.82,1.82,0,0,0,.14-.66l-.16-.09-.22-.13-.5-.29.88.51a.71.71,0,0,0-.29-.64l-.88-.51a.71.71,0,0,1,.29.64,1.82,1.82,0,0,1-.14.66"/></clipPath><clipPath id="clip-path-12"><path class="cls-2" d="M82.13,15.19l-.88-.51a5.18,5.18,0,0,0-1,2.47l.88.51a5.18,5.18,0,0,1,1-2.47"/></clipPath><clipPath id="clip-path-13"><path class="cls-2" d="M83.68,12.91l-.88-.51a.7.7,0,0,0-.7.08L83,13a.74.74,0,0,1,.71-.07"/></clipPath><clipPath id="clip-path-14"><path class="cls-2" d="M83,13l-.87-.5a2.12,2.12,0,0,0-1,1.71.79.79,0,0,0,.14.49l.88.51A.79.79,0,0,1,82,14.7,2.15,2.15,0,0,1,83,13"/></clipPath><clipPath id="clip-path-15"><path class="cls-2" d="M64.8,39.64a1.59,1.59,0,0,1,.66,1.22l.88.51a1.59,1.59,0,0,0-.66-1.22l-.88-.51"/></clipPath><clipPath id="clip-path-16"><path class="cls-2" d="M65.68,40.15l-.88-.51a.76.76,0,0,0-.33-.11l.88.51a.76.76,0,0,1,.33.11"/></clipPath><clipPath id="clip-path-17"><path class="cls-2" d="M64.61,38.87l.5.29,0,0,.06,0,.06,0,.21.12h0l-.88-.51"/></clipPath><clipPath id="clip-path-18"><path class="cls-2" d="M64.47,39.53l.88.51a2.06,2.06,0,0,0,.14-.66h0l-.16-.09-.22-.13-.5-.29.88.51a.71.71,0,0,0-.29-.64l-.88-.51a.71.71,0,0,1,.29.64,1.82,1.82,0,0,1-.14.66"/></clipPath><clipPath id="clip-path-19"><path class="cls-2" d="M63.65,41l-.88-.51a5.14,5.14,0,0,0-1,2.47l.88.51a5.14,5.14,0,0,1,1-2.47"/></clipPath><clipPath id="clip-path-20"><path class="cls-2" d="M65.2,38.74l-.88-.51a.72.72,0,0,0-.7.07l.87.51a.72.72,0,0,1,.71-.07"/></clipPath><clipPath id="clip-path-21"><path class="cls-2" d="M64.49,38.81l-.87-.51a2.18,2.18,0,0,0-1,1.71.8.8,0,0,0,.14.5l.88.51a.82.82,0,0,1-.14-.5,2.17,2.17,0,0,1,1-1.71"/></clipPath></defs><g id="Layer_2" data-name="Layer 2"><g id="Layer_1-2" data-name="Layer 1"><polyline class="cls-1" points="39.99 97.21 0 74.12 36.59 55.24 76.16 77.56 39.99 97.21"/><polygon class="cls-6" points="37.46 88.88 33.65 86.67 69.72 65.84 73.54 68.05 37.46 88.88 37.46 88.88"/><path class="cls-7" d="M37.47,93.43V88.88l-3.81-2.21v4.54a2.08,2.08,0,0,0,.86,1.9l3.82,2.21a2.08,2.08,0,0,1-.87-1.89Z"/><path class="cls-8" d="M37.47,93.43V88.88L73.54,68.05V72.6a6.48,6.48,0,0,1-3,5.1L40.45,95.12c-1.64.94-3,.18-3-1.69Z"/><polygon class="cls-3" points="37.46 88.88 33.65 86.67 33.47 25.57 37.29 27.78 37.46 88.88 37.46 88.88"/><polygon class="cls-10" points="37.29 27.78 33.47 25.57 69.55 4.74 73.36 6.96 37.29 27.78 37.29 27.78"/><polygon class="cls-4" points="73.36 6.96 73.54 68.05 37.46 88.88 37.29 27.78 73.36 6.96 73.36 6.96"/><g class="cls-12"><polygon class="cls-13" points="62.75 11.17 58.93 8.95 59.17 8.77 62.99 10.98 62.75 11.17 62.75 11.17"/><polygon class="cls-14" points="62.99 10.98 59.17 8.77 59.25 8.68 63.06 10.9 62.99 10.98 62.99 10.98"/><polygon class="cls-15" points="63.06 10.9 59.25 8.68 59.31 8.61 63.12 10.83 63.06 10.9 63.06 10.9"/><polygon class="cls-16" points="63.12 10.83 59.31 8.61 59.36 8.55 63.17 10.76 63.12 10.83 63.12 10.83"/><polygon class="cls-17" points="63.17 10.76 59.36 8.55 59.4 8.48 63.21 10.7 63.17 10.76 63.17 10.76"/><polygon class="cls-18" points="63.21 10.7 59.4 8.48 59.44 8.42 63.25 10.64 63.21 10.7 63.21 10.7"/><polygon class="cls-19" points="63.25 10.64 59.44 8.42 59.47 8.36 63.28 10.58 63.25 10.64 63.25 10.64"/><polygon class="cls-20" points="63.28 10.58 59.47 8.36 59.5 8.3 63.31 10.52 63.28 10.58 63.28 10.58"/><polygon class="cls-21" points="63.31 10.52 59.5 8.3 59.53 8.24 63.34 10.46 63.31 10.52 63.31 10.52"/><polygon class="cls-22" points="63.34 10.46 59.53 8.24 59.55 8.18 63.37 10.39 63.34 10.46 63.34 10.46"/><polygon class="cls-23" points="63.37 10.39 59.55 8.18 59.58 8.11 63.39 10.32 63.37 10.39 63.37 10.39"/><polygon class="cls-24" points="63.39 10.32 59.58 8.11 59.6 8.03 63.42 10.25 63.39 10.32 63.39 10.32"/><polygon class="cls-25" points="63.42 10.25 59.6 8.03 59.62 7.95 63.44 10.17 63.42 10.25 63.42 10.25"/><polygon class="cls-26" points="63.44 10.17 59.62 7.95 59.64 7.85 63.45 10.07 63.44 10.17 63.44 10.17"/><path class="cls-27" d="M63.45,10.07,59.64,7.85V7.71a.52.52,0,0,0-.21-.47l3.81,2.22a.51.51,0,0,1,.21.46v.15Z"/></g><g class="cls-28"><polygon class="cls-29" points="62.74 9.51 58.93 7.3 59.03 7.25 62.84 9.46 62.74 9.51 62.74 9.51"/><polygon class="cls-30" points="62.84 9.46 59.03 7.25 59.11 7.22 62.93 9.43 62.84 9.46 62.84 9.46"/><polygon class="cls-31" points="62.93 9.43 59.11 7.22 59.18 7.2 62.99 9.42 62.93 9.43 62.93 9.43"/><polygon class="cls-32" points="62.99 9.42 59.18 7.2 59.23 7.2 63.04 9.41 62.99 9.42 62.99 9.42"/><polygon class="cls-33" points="63.04 9.41 59.23 7.2 59.28 7.2 63.09 9.41 63.04 9.41 63.04 9.41"/><polygon class="cls-34" points="63.09 9.41 59.28 7.2 59.32 7.2 63.14 9.42 63.09 9.41 63.09 9.41"/><polygon class="cls-35" points="63.14 9.42 59.32 7.2 59.36 7.21 63.17 9.43 63.14 9.42 63.14 9.42"/><polygon class="cls-36" points="63.17 9.43 59.36 7.21 59.4 7.23 63.21 9.44 63.17 9.43 63.17 9.43"/><polygon class="cls-37" points="63.21 9.44 59.4 7.23 59.44 7.24 63.25 9.46 63.21 9.44 63.21 9.44"/><polygon class="cls-38" points="63.25 9.46 59.44 7.24 59.44 7.25 63.25 9.46 63.25 9.46 63.25 9.46"/></g><polygon class="cls-6" points="47.2 20.14 43.38 17.93 58.93 8.95 62.75 11.17 47.2 20.14 47.2 20.14"/><g class="cls-39"><polygon class="cls-22" points="46.68 20.2 42.87 17.98 42.87 17.98 46.69 20.2 46.68 20.2 46.68 20.2"/><polygon class="cls-21" points="46.69 20.2 42.87 17.98 42.91 18 46.72 20.22 46.69 20.2 46.69 20.2"/><polygon class="cls-20" points="46.72 20.22 42.91 18 42.95 18.01 46.76 20.23 46.72 20.22 46.72 20.22"/><polygon class="cls-19" points="46.76 20.23 42.95 18.01 42.98 18.02 46.8 20.24 46.76 20.23 46.76 20.23"/><polygon class="cls-18" points="46.8 20.24 42.98 18.02 43.03 18.03 46.84 20.25 46.8 20.24 46.8 20.24"/><polygon class="cls-17" points="46.84 20.25 43.03 18.03 43.08 18.03 46.89 20.25 46.84 20.25 46.84 20.25"/><polygon class="cls-16" points="46.89 20.25 43.08 18.03 43.13 18.02 46.95 20.24 46.89 20.25 46.89 20.25"/><polygon class="cls-15" points="46.95 20.24 43.13 18.02 43.19 18.01 47.01 20.23 46.95 20.24 46.95 20.24"/><polygon class="cls-14" points="47.01 20.23 43.19 18.01 43.28 17.98 47.09 20.2 47.01 20.23 47.01 20.23"/><polygon class="cls-13" points="47.09 20.2 43.28 17.98 43.38 17.93 47.2 20.14 47.09 20.2 47.09 20.2"/></g><polygon class="cls-10" points="47.19 18.49 43.38 16.27 58.93 7.3 62.74 9.51 47.19 18.49 47.19 18.49"/><g class="cls-40"><path class="cls-41" d="M46.68,20.2,42.87,18a.51.51,0,0,1-.21-.46v-.14l3.81,2.21v.14a.52.52,0,0,0,.21.47Z"/><polygon class="cls-42" points="46.48 19.59 42.67 17.38 42.69 17.27 46.5 19.49 46.48 19.59 46.48 19.59"/><polygon class="cls-43" points="46.5 19.49 42.69 17.27 42.7 17.19 46.52 19.41 46.5 19.49 46.5 19.49"/><polygon class="cls-44" points="46.52 19.41 42.7 17.19 42.73 17.12 46.54 19.34 46.52 19.41 46.52 19.41"/><polygon class="cls-45" points="46.54 19.34 42.73 17.12 42.75 17.05 46.56 19.27 46.54 19.34 46.54 19.34"/><polygon class="cls-38" points="46.56 19.27 42.75 17.05 42.78 16.99 46.59 19.21 46.56 19.27 46.56 19.27"/><polygon class="cls-37" points="46.59 19.21 42.78 16.99 42.8 16.93 46.62 19.14 46.59 19.21 46.59 19.21"/><polygon class="cls-36" points="46.62 19.14 42.8 16.93 42.84 16.86 46.65 19.08 46.62 19.14 46.62 19.14"/><polygon class="cls-35" points="46.65 19.08 42.84 16.86 42.87 16.8 46.69 19.02 46.65 19.08 46.65 19.08"/><polygon class="cls-34" points="46.69 19.02 42.87 16.8 42.91 16.74 46.72 18.96 46.69 19.02 46.69 19.02"/><polygon class="cls-33" points="46.72 18.96 42.91 16.74 42.95 16.68 46.76 18.9 46.72 18.96 46.72 18.96"/><polygon class="cls-32" points="46.76 18.9 42.95 16.68 43 16.62 46.81 18.84 46.76 18.9 46.76 18.9"/><polygon class="cls-31" points="46.81 18.83 43 16.62 43.05 16.55 46.87 18.76 46.81 18.84 46.81 18.83 46.81 18.83"/><polygon class="cls-30" points="46.87 18.76 43.05 16.55 43.13 16.46 46.95 18.68 46.87 18.76 46.87 18.76"/><polygon class="cls-29" points="46.95 18.68 43.13 16.46 43.38 16.27 47.19 18.49 46.95 18.68 46.95 18.68"/></g><path class="cls-46" d="M62.74,9.51c.4-.23.72,0,.72.41a1.61,1.61,0,0,1-.71,1.25l-15.55,9c-.4.24-.73.05-.73-.41a1.59,1.59,0,0,1,.72-1.24l15.55-9Z"/><path class="cls-8" d="M62.75,11.17a1.61,1.61,0,0,0,.71-1.25c0-.46-.32-.64-.72-.41l-15.55,9a1.59,1.59,0,0,0-.72,1.24c0,.46.33.65.73.41l15.55-9Zm7.64-8.55c1.63-.94,3-.18,3,1.69V7L37.29,27.78V25.14A6.52,6.52,0,0,1,40.23,20L70.39,2.62Z"/><path class="cls-7" d="M70.87,2.39l.21-.07.13,0,.13,0,.15,0h.33l.21,0h.06l.16,0,0,0,.19.09L68.68.2h0L68.51.12h0l0,0-.07,0-.09,0h-.08L68,0H67.6l-.08,0-.12,0-.06,0-.07,0-.21.07L67,.2l0,0L66.57.4,36.42,17.81a3.46,3.46,0,0,0-.46.32l-.08.05c-.14.11-.28.24-.42.37l0,0-.06.07-.2.21-.06.06,0,.06-.12.15-.07.09-.06.08-.08.11-.06.07-.09.14-.06.08,0,0-.16.25v0l0,0-.11.19,0,.09,0,.08,0,.08-.1.21,0,0h0l-.11.27,0,.05,0,.09,0,.13,0,.11,0,.12,0,.08,0,.13,0,.15,0,.06V22l0,.24,0,.07v.06a4.53,4.53,0,0,0,0,.52v2.64l3.82,2.21V25.14a4.67,4.67,0,0,1,0-.52l0-.12,0-.24,0-.16,0-.15.05-.21,0-.13.07-.23,0-.1c0-.11.08-.21.13-.32l0-.05c0-.09.08-.18.13-.27l0-.1.13-.25,0-.07c.06-.1.12-.2.19-.3l0-.09.15-.21.08-.11.13-.17.12-.14.11-.13.2-.21.1-.1a4.59,4.59,0,0,1,.41-.36l.08-.06c.15-.11.31-.22.46-.31L70.39,2.62a3.14,3.14,0,0,1,.37-.18l.11,0Z"/><polygon class="cls-47" points="94.46 23.98 93.62 23.49 93.62 24.2 94.46 24.69 94.46 23.98 94.46 23.98"/><polygon class="cls-47" points="94.45 22.14 93.61 21.65 93.61 22.36 94.45 22.85 94.45 22.14 94.45 22.14"/><polygon class="cls-47" points="94.45 20.21 93.61 19.72 93.61 20.43 94.45 20.92 94.45 20.21 94.45 20.21"/><polygon class="cls-48" points="94.46 24.69 93.62 24.2 72.45 36.42 73.29 36.91 94.46 24.69 94.46 24.69"/><polygon class="cls-49" points="94.46 23.98 93.62 23.49 72.45 35.71 73.29 36.2 94.46 23.98 94.46 23.98"/><polygon class="cls-50" points="73.29 36.2 72.45 35.71 72.45 36.42 73.29 36.91 73.29 36.2 73.29 36.2"/><polygon class="cls-48" points="94.45 22.85 93.61 22.36 72.44 34.58 73.29 35.07 94.45 22.85 94.45 22.85"/><polygon class="cls-49" points="94.45 22.14 93.61 21.65 72.44 33.87 73.28 34.36 94.45 22.14 94.45 22.14"/><polygon class="cls-50" points="73.28 34.36 72.44 33.87 72.44 34.58 73.29 35.07 73.28 34.36 73.28 34.36"/><polygon class="cls-48" points="94.45 20.92 93.61 20.43 72.44 32.65 73.28 33.14 94.45 20.92 94.45 20.92"/><polygon class="cls-50" points="73.28 32.43 72.44 31.94 72.44 32.65 73.28 33.14 73.28 32.43 73.28 32.43"/><polygon class="cls-46" points="73.28 32.43 73.28 33.14 94.45 20.92 94.45 20.21 73.28 32.43 73.28 32.43"/><polygon class="cls-49" points="94.45 20.21 93.61 19.72 72.44 31.94 73.28 32.43 94.45 20.21 94.45 20.21"/><path class="cls-51" d="M73.29,35.07,94.46,22.85v-.71L73.28,34.36v.71Zm0,1.84L94.46,24.69V24L73.29,36.2v.71Zm0-3.77L94.45,20.92v-.71L73.28,32.43v.71Zm21-14.55c.78-.45,1.41-.09,1.41.81l0,4.68a3.09,3.09,0,0,1-1.41,2.43L76.77,36.63l-4.62,7,0-5.72,0-.16V33a3.08,3.08,0,0,1,1.41-2.44l20.78-12Z"/><polygon class="cls-46" points="73.29 36.2 73.29 36.91 94.46 24.69 94.46 23.98 73.29 36.2 73.29 36.2"/><polygon class="cls-46" points="73.28 34.36 73.29 35.07 94.45 22.85 94.45 22.14 73.28 34.36 73.28 34.36"/><path class="cls-7" d="M71.25,32.47v-.2l0-.07v-.15l0-.07,0-.08,0,0h0l0-.07,0-.07,0-.07,0-.07,0-.06h0l0-.07,0-.07,0-.09.05-.09h0v0l.11-.17.09-.12h0l.06-.07,0-.07.06-.07,0-.06h0l0,0,.06-.06.06-.06.07-.05,0,0h0l0,0,.06-.05.06,0,.06,0,.06,0h0l20.79-12,0,0,.06,0,.06,0,.05,0,.06,0h.06l.06,0h.32l.08,0h0l.1,0,.11.05.84.49-.21-.07h0l-.24,0h0a1.22,1.22,0,0,0-.26.06h0a2.28,2.28,0,0,0-.28.13l-20.78,12a1.79,1.79,0,0,0-.28.2h0L73,31h0a2.09,2.09,0,0,0-.24.28,3.53,3.53,0,0,0-.21.32h0a2.59,2.59,0,0,0-.17.33h0a2.48,2.48,0,0,0-.13.35h0a2.49,2.49,0,0,0-.11.7v4.68l0,.16,0,5.72-.84-.48,0-5.73v-.15h0V32.47Z"/><polygon class="cls-47" points="75.78 18.2 74.89 17.68 74.89 18.44 75.79 18.96 75.78 18.2 75.78 18.2"/><polygon class="cls-47" points="75.78 16.25 74.88 15.73 74.89 16.48 75.78 17 75.78 16.25 75.78 16.25"/><polygon class="cls-47" points="75.77 14.19 74.88 13.67 74.88 14.43 75.78 14.95 75.77 14.19 75.77 14.19"/><polygon class="cls-48" points="75.79 18.96 74.89 18.44 52.36 31.45 53.26 31.97 75.79 18.96 75.79 18.96"/><polygon class="cls-49" points="75.78 18.2 74.89 17.68 52.36 30.69 53.25 31.21 75.78 18.2 75.78 18.2"/><polygon class="cls-46" points="53.25 31.21 53.26 31.97 75.79 18.96 75.78 18.2 53.25 31.21 53.25 31.21"/><polygon class="cls-50" points="53.25 31.21 52.36 30.69 52.36 31.45 53.26 31.97 53.25 31.21 53.25 31.21"/><polygon class="cls-48" points="75.78 17 74.89 16.48 52.36 29.49 53.25 30.01 75.78 17 75.78 17"/><polygon class="cls-49" points="75.78 16.25 74.88 15.73 52.35 28.73 53.25 29.25 75.78 16.25 75.78 16.25"/><polygon class="cls-50" points="53.25 29.25 52.35 28.73 52.36 29.49 53.25 30.01 53.25 29.25 53.25 29.25"/><polygon class="cls-48" points="75.78 14.95 74.88 14.43 52.35 27.44 53.24 27.96 75.78 14.95 75.78 14.95"/><polygon class="cls-49" points="75.77 14.19 74.88 13.67 52.35 26.68 53.24 27.2 75.77 14.19 75.77 14.19"/><polygon class="cls-50" points="53.24 27.2 52.35 26.68 52.35 27.44 53.24 27.96 53.24 27.2 53.24 27.2"/><path class="cls-51" d="M53.24,28,75.78,15v-.76l-22.53,13V28Zm0,4L75.79,19V18.2l-22.54,13V32Zm0-2L75.78,17v-.75l-22.53,13V30Zm22.28-17.5c.83-.48,1.5-.1,1.51.86v5l0,.19v6.12l-4.94-1.72L53.44,33.71c-.83.48-1.51.09-1.51-.86v-5a3.3,3.3,0,0,1,1.49-2.59L75.53,12.51Z"/><polygon class="cls-46" points="53.25 29.25 53.25 30.01 75.78 17 75.78 16.25 53.25 29.25 53.25 29.25"/><polygon class="cls-46" points="53.24 27.2 53.24 27.96 75.78 14.95 75.77 14.19 53.24 27.2 53.24 27.2"/><path class="cls-7" d="M51,27.28V27l0-.08v-.08l0-.08,0-.08,0-.06h0l0-.08,0-.08,0-.07,0-.07,0-.06h0l0-.07,0-.08,0-.09.05-.09v0l.12-.18.09-.13.07-.09.06-.07,0-.07.06-.06v0h0l0-.05.07-.06.06-.06.07-.06,0,0h0l0,0,.07-.06.07,0,.06-.05.06,0h0L74.63,12l.05,0,.06,0,.06,0,.07,0,0,0H75l.07,0,.06,0h.37l.1,0,.12.06.81.46.09.05-.22-.08h-.26a1.4,1.4,0,0,0-.28.06h0a1.35,1.35,0,0,0-.3.14L53.41,25.28l-.3.21h0a3.45,3.45,0,0,0-.28.26h0a3.3,3.3,0,0,0-.47.64v0a2.31,2.31,0,0,0-.18.35,2.72,2.72,0,0,0-.13.37h0a2.76,2.76,0,0,0-.11.74v5a1.58,1.58,0,0,0,0,.32h0a1.07,1.07,0,0,0,.09.27h0l.11.17.05.06.16.13-.9-.52-.16-.13,0,0L51.21,33l-.05-.11h0l0-.08,0-.08,0-.08v0h0v-.32h0l0-5v-.07Z"/><g class="cls-52"><path class="cls-53" d="M84.16,14.32l-.88-.51a1.25,1.25,0,0,1,.38.38l.88.51a1.37,1.37,0,0,0-.38-.38Z"/><polygon class="cls-54" points="84.54 14.7 83.66 14.19 83.75 14.36 84.63 14.87 84.54 14.7 84.54 14.7"/><polygon class="cls-55" points="84.63 14.87 83.75 14.36 83.82 14.51 84.7 15.03 84.63 14.87 84.63 14.87"/><polygon class="cls-56" points="84.7 15.03 83.82 14.51 83.86 14.65 84.74 15.16 84.7 15.03 84.7 15.03"/><polygon class="cls-57" points="84.74 15.16 83.86 14.65 83.9 14.79 84.78 15.3 84.74 15.16 84.74 15.16"/><polygon class="cls-58" points="84.78 15.3 83.9 14.79 83.93 14.93 84.81 15.44 84.78 15.3 84.78 15.3"/><polygon class="cls-59" points="84.81 15.44 83.93 14.93 83.94 15.03 84.82 15.54 84.81 15.44 84.81 15.44"/></g><g class="cls-60"><polygon class="cls-61" points="84.16 14.32 83.28 13.81 83.12 13.74 84 14.25 84.16 14.32 84.16 14.32"/><polygon class="cls-62" points="84 14.25 83.12 13.74 83 13.71 83.87 14.21 84 14.25 84 14.25"/><polygon class="cls-63" points="83.87 14.21 83 13.71 82.95 13.7 83.83 14.21 83.87 14.21 83.87 14.21"/></g><g class="cls-64"><polygon class="cls-65" points="83.97 13.55 83.09 13.04 83.09 13.04 83.09 13.08 83.97 13.59 83.97 13.55 83.97 13.55 83.97 13.55"/></g><polygon class="cls-66" points="84.82 15.54 83.94 15.03 80.27 17.15 81.15 17.66 84.82 15.54 84.82 15.54"/><g class="cls-67"><polygon class="cls-53" points="83.68 12.91 82.8 12.4 82.97 12.57 83.85 13.08 83.68 12.91 83.68 12.91"/><polygon class="cls-54" points="83.85 13.08 82.97 12.57 83.01 12.64 83.89 13.15 83.85 13.08 83.85 13.08"/><polygon class="cls-55" points="83.89 13.15 83.01 12.64 83.03 12.7 83.91 13.21 83.89 13.15 83.89 13.15"/><polygon class="cls-56" points="83.91 13.21 83.03 12.7 83.05 12.75 83.93 13.26 83.91 13.21 83.91 13.21"/><polygon class="cls-57" points="83.93 13.26 83.05 12.75 83.06 12.8 83.94 13.31 83.93 13.26 83.93 13.26"/><polygon class="cls-58" points="83.94 13.31 83.06 12.8 83.07 12.85 83.95 13.36 83.94 13.31 83.94 13.31"/><polygon class="cls-59" points="83.95 13.36 83.07 12.85 83.08 12.89 83.96 13.4 83.95 13.36 83.95 13.36"/><polygon class="cls-68" points="83.96 13.4 83.08 12.89 83.09 12.94 83.96 13.45 83.96 13.4 83.96 13.4"/><polygon class="cls-69" points="83.96 13.45 83.09 12.94 83.09 12.99 83.97 13.5 83.96 13.45 83.96 13.45"/><polygon class="cls-70" points="83.97 13.5 83.09 12.99 83.09 13.04 83.97 13.55 83.97 13.5 83.97 13.5"/><polygon class="cls-65" points="83.97 13.55 83.09 13.04 83.09 13.04 83.09 13.08 83.97 13.59 83.97 13.55 83.97 13.55 83.97 13.55"/><polygon class="cls-71" points="83.97 13.59 83.09 13.08 83.09 13.13 83.97 13.64 83.97 13.59 83.97 13.59"/><polygon class="cls-72" points="83.97 13.64 83.09 13.13 83.08 13.18 83.96 13.69 83.97 13.64 83.97 13.64"/><polygon class="cls-73" points="83.96 13.69 83.08 13.18 83.08 13.22 83.96 13.73 83.96 13.69 83.96 13.69"/><polygon class="cls-74" points="83.96 13.73 83.08 13.22 83.07 13.27 83.95 13.78 83.96 13.73 83.96 13.73"/><polygon class="cls-75" points="83.95 13.78 83.07 13.27 83.06 13.32 83.94 13.83 83.95 13.78 83.95 13.78"/><polygon class="cls-76" points="83.94 13.83 83.06 13.32 83.05 13.37 83.93 13.88 83.94 13.83 83.94 13.83"/><polygon class="cls-77" points="83.93 13.88 83.05 13.37 83.04 13.42 83.92 13.93 83.93 13.88 83.93 13.88"/><polygon class="cls-78" points="83.92 13.93 83.04 13.42 83.03 13.47 83.9 13.98 83.92 13.93 83.92 13.93"/><polygon class="cls-79" points="83.9 13.98 83.03 13.47 83.01 13.53 83.89 14.04 83.9 13.98 83.9 13.98"/><polygon class="cls-80" points="83.89 14.04 83.01 13.53 82.99 13.59 83.87 14.1 83.89 14.04 83.89 14.04"/><polygon class="cls-81" points="83.87 14.1 82.99 13.59 82.97 13.64 83.85 14.15 83.87 14.1 83.87 14.1"/><polygon class="cls-82" points="83.85 14.15 82.97 13.64 82.95 13.7 83.83 14.21 83.85 14.15 83.85 14.15"/></g><g class="cls-83"><polygon class="cls-84" points="82.13 15.19 81.25 14.68 81.21 14.73 82.09 15.24 82.13 15.19 82.13 15.19"/><polygon class="cls-84" points="82.09 15.24 81.21 14.73 81.11 14.88 81.99 15.38 82.09 15.24 82.09 15.24"/><path class="cls-85" d="M82,15.39l-.88-.51a2.33,2.33,0,0,0-.17.26l.88.51a2.33,2.33,0,0,1,.17-.26Z"/><polygon class="cls-84" points="81.82 15.65 80.94 15.14 80.85 15.31 81.72 15.82 81.82 15.65 81.82 15.65"/><polygon class="cls-84" points="81.72 15.82 80.85 15.31 80.78 15.44 81.66 15.95 81.72 15.82 81.72 15.82"/><polygon class="cls-84" points="81.66 15.95 80.78 15.44 80.73 15.55 81.61 16.06 81.66 15.95 81.66 15.95"/><polygon class="cls-84" points="81.61 16.06 80.73 15.55 80.68 15.65 81.56 16.16 81.61 16.06 81.61 16.06"/><polygon class="cls-86" points="81.56 16.16 80.68 15.65 80.63 15.76 81.51 16.27 81.56 16.16 81.56 16.16"/><polygon class="cls-87" points="81.51 16.27 80.63 15.76 80.59 15.88 81.47 16.39 81.51 16.27 81.51 16.27"/><polygon class="cls-88" points="81.47 16.39 80.59 15.88 80.54 15.99 81.42 16.5 81.47 16.39 81.47 16.39"/><polygon class="cls-89" points="81.42 16.5 80.54 15.99 80.5 16.12 81.38 16.63 81.42 16.5 81.42 16.5"/><polygon class="cls-90" points="81.38 16.63 80.5 16.12 80.46 16.25 81.33 16.76 81.38 16.63 81.38 16.63"/><polygon class="cls-91" points="81.33 16.76 80.46 16.25 80.42 16.39 81.3 16.9 81.33 16.76 81.33 16.76"/><polygon class="cls-92" points="81.3 16.9 80.42 16.39 80.38 16.53 81.26 17.04 81.3 16.9 81.3 16.9"/><polygon class="cls-93" points="81.26 17.04 80.38 16.53 80.35 16.67 81.23 17.18 81.26 17.04 81.26 17.04"/><polygon class="cls-94" points="81.23 17.18 80.35 16.67 80.32 16.81 81.19 17.32 81.23 17.18 81.23 17.18"/><polygon class="cls-95" points="81.19 17.32 80.32 16.81 80.29 16.95 81.17 17.46 81.19 17.32 81.19 17.32"/><polygon class="cls-96" points="81.17 17.46 80.29 16.95 80.27 17.09 81.15 17.6 81.17 17.46 81.17 17.46"/><polygon class="cls-97" points="81.15 17.6 80.27 17.09 80.27 17.15 81.15 17.66 81.15 17.6 81.15 17.6"/></g><g class="cls-98"><polygon class="cls-61" points="83.68 12.91 82.8 12.4 82.72 12.37 83.6 12.88 83.68 12.91 83.68 12.91"/><polygon class="cls-62" points="83.6 12.88 82.72 12.37 82.65 12.35 83.53 12.86 83.6 12.88 83.6 12.88"/><polygon class="cls-63" points="83.53 12.86 82.65 12.35 82.59 12.34 83.47 12.85 83.53 12.86 83.53 12.86"/><polygon class="cls-99" points="83.47 12.85 82.59 12.34 82.54 12.34 83.42 12.85 83.47 12.85 83.47 12.85"/><polygon class="cls-100" points="83.42 12.85 82.54 12.34 82.5 12.34 83.38 12.85 83.42 12.85 83.42 12.85"/><polygon class="cls-101" points="83.38 12.85 82.5 12.34 82.45 12.34 83.33 12.85 83.38 12.85 83.38 12.85"/><polygon class="cls-102" points="83.33 12.85 82.45 12.34 82.41 12.35 83.29 12.86 83.33 12.85 83.33 12.85"/><polygon class="cls-103" points="83.29 12.86 82.41 12.35 82.37 12.36 83.25 12.87 83.29 12.86 83.29 12.86"/><polygon class="cls-104" points="83.25 12.87 82.37 12.36 82.33 12.37 83.21 12.88 83.25 12.87 83.25 12.87"/><polygon class="cls-105" points="83.21 12.88 82.33 12.37 82.29 12.38 83.17 12.9 83.21 12.88 83.21 12.88"/><polygon class="cls-106" points="83.17 12.9 82.29 12.38 82.25 12.4 83.13 12.91 83.17 12.9 83.17 12.9"/><polygon class="cls-107" points="83.13 12.91 82.25 12.4 82.21 12.42 83.09 12.93 83.13 12.91 83.13 12.91"/><polygon class="cls-108" points="83.09 12.93 82.21 12.42 82.17 12.44 83.05 12.95 83.09 12.93 83.09 12.93"/><polygon class="cls-97" points="83.05 12.95 82.17 12.44 82.13 12.46 83 12.97 83.05 12.95 83.05 12.95"/><polygon class="cls-96" points="83 12.97 82.13 12.46 82.09 12.47 82.97 12.98 83 12.97 83 12.97"/></g><g class="cls-109"><polygon class="cls-96" points="82.97 12.98 82.09 12.47 82.08 12.48 82.96 12.99 82.97 12.98 82.97 12.98"/><polygon class="cls-95" points="82.96 12.99 82.08 12.48 82.04 12.51 82.92 13.02 82.96 12.99 82.96 12.99"/><polygon class="cls-94" points="82.92 13.02 82.04 12.51 82 12.54 82.88 13.05 82.92 13.02 82.92 13.02"/><polygon class="cls-93" points="82.88 13.05 82 12.54 81.96 12.56 82.83 13.08 82.88 13.05 82.88 13.05"/><polygon class="cls-92" points="82.83 13.08 81.96 12.56 81.91 12.6 82.79 13.11 82.83 13.08 82.83 13.08"/><polygon class="cls-91" points="82.79 13.11 81.91 12.6 81.87 12.63 82.75 13.14 82.79 13.11 82.79 13.11"/><polygon class="cls-90" points="82.75 13.14 81.87 12.63 81.83 12.67 82.7 13.19 82.75 13.14 82.75 13.14"/><polygon class="cls-89" points="82.7 13.19 81.83 12.67 81.78 12.71 82.66 13.22 82.7 13.19 82.7 13.19"/><polygon class="cls-88" points="82.66 13.22 81.78 12.71 81.74 12.76 82.62 13.27 82.66 13.22 82.66 13.22"/><polygon class="cls-87" points="82.62 13.27 81.74 12.76 81.7 12.8 82.58 13.31 82.62 13.27 82.62 13.27"/><polygon class="cls-86" points="82.58 13.31 81.7 12.8 81.66 12.84 82.54 13.35 82.58 13.31 82.58 13.31"/><polygon class="cls-84" points="82.54 13.35 81.66 12.84 81.62 12.88 82.5 13.4 82.54 13.35 82.54 13.35"/><polygon class="cls-84" points="82.5 13.4 81.62 12.88 81.58 12.93 82.46 13.44 82.5 13.4 82.5 13.4"/><polygon class="cls-84" points="82.46 13.44 81.58 12.93 81.54 12.99 82.42 13.5 82.46 13.44 82.46 13.44"/><polygon class="cls-84" points="82.42 13.5 81.54 12.99 81.48 13.08 82.36 13.59 82.42 13.5 82.42 13.5"/><polygon class="cls-85" points="82.36 13.59 81.48 13.08 81.41 13.19 82.28 13.71 82.36 13.59 82.36 13.59"/><polygon class="cls-84" points="82.28 13.71 81.41 13.19 81.36 13.28 82.23 13.79 82.28 13.71 82.28 13.71"/><polygon class="cls-84" points="82.23 13.79 81.36 13.28 81.33 13.34 82.2 13.85 82.23 13.79 82.23 13.79"/><polygon class="cls-84" points="82.2 13.85 81.33 13.34 81.3 13.39 82.18 13.9 82.2 13.85 82.2 13.85"/><polygon class="cls-84" points="82.18 13.9 81.3 13.39 81.28 13.44 82.16 13.95 82.18 13.9 82.18 13.9"/><polygon class="cls-86" points="82.16 13.95 81.28 13.44 81.26 13.49 82.14 14 82.16 13.95 82.16 13.95"/><polygon class="cls-87" points="82.14 14 81.26 13.49 81.24 13.54 82.12 14.05 82.14 14 82.14 14"/><polygon class="cls-88" points="82.12 14.05 81.24 13.54 81.22 13.58 82.1 14.1 82.12 14.05 82.12 14.05"/><polygon class="cls-89" points="82.1 14.1 81.22 13.58 81.2 13.63 82.08 14.14 82.1 14.1 82.1 14.1"/><polygon class="cls-90" points="82.08 14.14 81.2 13.63 81.19 13.69 82.07 14.2 82.08 14.14 82.08 14.14"/><polygon class="cls-91" points="82.07 14.2 81.19 13.69 81.17 13.74 82.05 14.25 82.07 14.2 82.07 14.2"/><polygon class="cls-92" points="82.05 14.25 81.17 13.74 81.16 13.79 82.04 14.3 82.05 14.25 82.05 14.25"/><polygon class="cls-93" points="82.04 14.3 81.16 13.79 81.15 13.84 82.02 14.35 82.04 14.3 82.04 14.3"/><polygon class="cls-94" points="82.02 14.35 81.15 13.84 81.14 13.89 82.02 14.4 82.02 14.35 82.02 14.35"/><polygon class="cls-95" points="82.02 14.4 81.14 13.89 81.13 13.94 82.01 14.45 82.02 14.4 82.02 14.4"/><polygon class="cls-96" points="82.01 14.45 81.13 13.94 81.12 13.99 82 14.5 82.01 14.45 82.01 14.45"/><polygon class="cls-97" points="82 14.5 81.12 13.99 81.11 14.04 81.99 14.55 82 14.5 82 14.5"/><polygon class="cls-108" points="81.99 14.55 81.11 14.04 81.11 14.09 81.99 14.6 81.99 14.55 81.99 14.55"/><polygon class="cls-107" points="81.99 14.6 81.11 14.09 81.11 14.14 81.99 14.65 81.99 14.6 81.99 14.6"/><polygon class="cls-106" points="81.99 14.65 81.11 14.14 81.11 14.19 81.11 14.19 81.98 14.7 81.98 14.7 81.99 14.65 81.99 14.65"/><polygon class="cls-105" points="81.98 14.7 81.11 14.19 81.11 14.23 81.99 14.74 81.98 14.7 81.98 14.7"/><polygon class="cls-104" points="81.99 14.74 81.11 14.23 81.11 14.28 81.99 14.79 81.99 14.74 81.99 14.74"/><polygon class="cls-103" points="81.99 14.79 81.11 14.28 81.12 14.32 81.99 14.83 81.99 14.79 81.99 14.79"/><polygon class="cls-102" points="81.99 14.83 81.12 14.32 81.12 14.37 82 14.88 81.99 14.83 81.99 14.83"/><polygon class="cls-101" points="82 14.88 81.12 14.37 81.13 14.41 82.01 14.93 82 14.88 82 14.88"/><polygon class="cls-100" points="82.01 14.93 81.13 14.41 81.14 14.46 82.02 14.97 82.01 14.93 82.01 14.93"/><polygon class="cls-99" points="82.02 14.97 81.14 14.46 81.16 14.52 82.04 15.03 82.02 14.97 82.02 14.97"/><polygon class="cls-63" points="82.04 15.03 81.16 14.52 81.19 14.57 82.07 15.09 82.04 15.03 82.04 15.03"/><polygon class="cls-62" points="82.07 15.09 81.19 14.57 81.23 14.65 82.11 15.16 82.07 15.09 82.07 15.09"/><polygon class="cls-61" points="82.11 15.16 81.23 14.65 81.25 14.68 82.13 15.19 82.11 15.16 82.11 15.16"/></g><path class="cls-86" d="M83,13a2.15,2.15,0,0,0-1,1.72.79.79,0,0,0,.14.49,5.18,5.18,0,0,0-1,2.47l3.67-2.12c-.1-.77-.48-1.25-1-1.33a1.82,1.82,0,0,0,.14-.66c0-.63-.45-.88-1-.57Z"/><path class="cls-110" d="M78.82,16.35V16l0-.16,0-.17,0-.16,0-.17,0-.18L79,15l0-.14h0v0l.06-.17,0-.17.06-.16.07-.15.05-.13h0v0l.08-.16.08-.17.1-.2.12-.21,0,0,0,0,.25-.39.21-.3.14-.19.13-.16.13-.14.12-.14,0,0h0l.1-.11.14-.13.14-.13.15-.13.07-.06,0,0,0,0,.15-.11.14-.1.14-.09.14-.09,0,0,.1-.06.14-.07.09,0h0l.13-.05.13-.06h0l.09,0,.13,0h.14l.14,0h.47l.19,0h0l.18.05h0l.25.11.88.51L85.05,11l-.19-.06h0l-.24,0h-.33l-.27,0h0l-.28.08h0l-.31.13h0l-.32.17a4.62,4.62,0,0,0-.66.46h0a6.32,6.32,0,0,0-.6.56h0a7.47,7.47,0,0,0-1,1.39l0,0a6.18,6.18,0,0,0-.39.77h0a6,6,0,0,0-.3.8h0a6.07,6.07,0,0,0-.19.82,4.4,4.4,0,0,0-.07.8c0,.12,0,.24,0,.36v0a2.87,2.87,0,0,0,.05.31v0a1.28,1.28,0,0,0,.07.28v.05l.09.22,0,0,.13.23a1,1,0,0,0,.23.28l.05.07a2.92,2.92,0,0,0,.28.21l-.88-.52a1.09,1.09,0,0,1-.27-.21l-.07-.06a1.6,1.6,0,0,1-.22-.28h0l-.12-.23h0v0L79,17.64l0-.09v-.09l0-.16v-.16l0-.16v-.47h0v-.15Z"/><path class="cls-111" d="M84.82,15.54c-.1-.77-.48-1.25-1-1.33a1.82,1.82,0,0,0,.14-.66c0-.63-.45-.88-1-.57a2.15,2.15,0,0,0-1,1.72.79.79,0,0,0,.14.49,5.18,5.18,0,0,0-1,2.47l3.67-2.12Zm1.45-2.33A7.26,7.26,0,0,1,83,18.89c-1.81,1-3.29.2-3.3-1.88A7.23,7.23,0,0,1,83,11.33c1.81-1.05,3.29-.2,3.3,1.88Z"/><g class="cls-112"><path class="cls-53" d="M65.68,40.15l-.88-.51a1.15,1.15,0,0,1,.38.38l.88.51a1.37,1.37,0,0,0-.38-.38Z"/><polygon class="cls-54" points="66.06 40.53 65.18 40.02 65.27 40.19 66.15 40.7 66.06 40.53 66.06 40.53"/><polygon class="cls-55" points="66.15 40.7 65.27 40.19 65.34 40.34 66.22 40.85 66.15 40.7 66.15 40.7"/><polygon class="cls-56" points="66.22 40.85 65.34 40.34 65.39 40.48 66.26 40.99 66.22 40.85 66.22 40.85"/><polygon class="cls-57" points="66.26 40.99 65.39 40.48 65.42 40.62 66.3 41.13 66.26 40.99 66.26 40.99"/><polygon class="cls-58" points="66.3 41.13 65.42 40.62 65.45 40.76 66.33 41.27 66.3 41.13 66.3 41.13"/><polygon class="cls-59" points="66.33 41.27 65.45 40.76 65.46 40.86 66.34 41.37 66.33 41.27 66.33 41.27"/></g><g class="cls-113"><polygon class="cls-61" points="65.68 40.15 64.8 39.64 64.64 39.57 65.52 40.08 65.68 40.15 65.68 40.15"/><polygon class="cls-62" points="65.52 40.08 64.64 39.57 64.51 39.53 65.39 40.05 65.52 40.08 65.52 40.08"/><polygon class="cls-63" points="65.39 40.05 64.51 39.53 64.47 39.53 65.35 40.04 65.39 40.05 65.39 40.05"/></g><g class="cls-114"><polygon class="cls-65" points="65.49 39.38 64.61 38.87 64.61 38.87 64.61 38.91 65.49 39.42 65.49 39.38 65.49 39.38 65.49 39.38"/></g><polygon class="cls-66" points="66.34 41.37 65.46 40.86 61.79 42.98 62.67 43.49 66.34 41.37 66.34 41.37"/><g class="cls-115"><polygon class="cls-53" points="65.2 38.74 64.32 38.23 64.49 38.4 65.37 38.91 65.2 38.74 65.2 38.74"/><polygon class="cls-54" points="65.37 38.91 64.49 38.4 64.53 38.47 65.41 38.98 65.37 38.91 65.37 38.91"/><polygon class="cls-55" points="65.41 38.98 64.53 38.47 64.55 38.52 65.43 39.04 65.41 38.98 65.41 38.98"/><polygon class="cls-56" points="65.43 39.04 64.55 38.52 64.57 38.58 65.45 39.09 65.43 39.04 65.43 39.04"/><polygon class="cls-57" points="65.45 39.09 64.57 38.58 64.58 38.63 65.46 39.14 65.45 39.09 65.45 39.09"/><polygon class="cls-58" points="65.46 39.14 64.58 38.63 64.59 38.68 65.47 39.19 65.46 39.14 65.46 39.14"/><polygon class="cls-59" points="65.47 39.19 64.59 38.68 64.6 38.72 65.48 39.23 65.47 39.19 65.47 39.19"/><polygon class="cls-68" points="65.48 39.23 64.6 38.72 64.61 38.77 65.48 39.28 65.48 39.23 65.48 39.23"/><polygon class="cls-69" points="65.48 39.28 64.61 38.77 64.61 38.82 65.48 39.33 65.48 39.28 65.48 39.28"/><polygon class="cls-70" points="65.48 39.33 64.61 38.82 64.61 38.87 65.49 39.38 65.48 39.33 65.48 39.33"/><polygon class="cls-65" points="65.49 39.38 64.61 38.87 64.61 38.87 64.61 38.91 65.49 39.42 65.49 39.38 65.49 39.38 65.49 39.38"/><polygon class="cls-71" points="65.49 39.42 64.61 38.91 64.61 38.96 65.48 39.47 65.49 39.42 65.49 39.42"/><polygon class="cls-72" points="65.48 39.47 64.61 38.96 64.6 39.01 65.48 39.51 65.48 39.47 65.48 39.47"/><polygon class="cls-73" points="65.48 39.51 64.6 39.01 64.6 39.05 65.48 39.56 65.48 39.51 65.48 39.51"/><polygon class="cls-74" points="65.48 39.56 64.6 39.05 64.59 39.1 65.47 39.61 65.48 39.56 65.48 39.56"/><polygon class="cls-75" points="65.47 39.61 64.59 39.1 64.58 39.15 65.46 39.66 65.47 39.61 65.47 39.61"/><polygon class="cls-76" points="65.46 39.66 64.58 39.15 64.57 39.2 65.45 39.71 65.46 39.66 65.46 39.66"/><polygon class="cls-77" points="65.45 39.71 64.57 39.2 64.56 39.25 65.44 39.76 65.45 39.71 65.45 39.71"/><polygon class="cls-78" points="65.44 39.76 64.56 39.25 64.55 39.3 65.42 39.81 65.44 39.76 65.44 39.76"/><polygon class="cls-79" points="65.42 39.81 64.55 39.3 64.53 39.36 65.41 39.87 65.42 39.81 65.42 39.81"/><polygon class="cls-80" points="65.41 39.87 64.53 39.36 64.51 39.41 65.39 39.93 65.41 39.87 65.41 39.87"/><polygon class="cls-81" points="65.39 39.93 64.51 39.41 64.49 39.47 65.37 39.98 65.39 39.93 65.39 39.93"/><polygon class="cls-82" points="65.37 39.98 64.49 39.47 64.47 39.53 65.35 40.04 65.37 39.98 65.37 39.98"/></g><g class="cls-116"><polygon class="cls-84" points="63.65 41.02 62.77 40.51 62.73 40.56 63.61 41.07 63.65 41.02 63.65 41.02"/><polygon class="cls-84" points="63.61 41.07 62.73 40.56 62.63 40.71 63.51 41.22 63.61 41.07 63.61 41.07"/><path class="cls-85" d="M63.51,41.22l-.88-.51c-.06.08-.11.17-.17.26l.88.51a2.33,2.33,0,0,1,.17-.26Z"/><polygon class="cls-84" points="63.34 41.48 62.46 40.97 62.37 41.14 63.24 41.65 63.34 41.48 63.34 41.48"/><polygon class="cls-84" points="63.24 41.65 62.37 41.14 62.3 41.26 63.18 41.77 63.24 41.65 63.24 41.65"/><polygon class="cls-84" points="63.18 41.77 62.3 41.26 62.25 41.38 63.13 41.88 63.18 41.77 63.18 41.77"/><polygon class="cls-84" points="63.13 41.88 62.25 41.38 62.2 41.48 63.08 41.99 63.13 41.88 63.13 41.88"/><polygon class="cls-86" points="63.08 41.99 62.2 41.48 62.15 41.59 63.03 42.1 63.08 41.99 63.08 41.99"/><polygon class="cls-87" points="63.03 42.1 62.15 41.59 62.11 41.71 62.98 42.22 63.03 42.1 63.03 42.1"/><polygon class="cls-88" points="62.98 42.22 62.11 41.71 62.06 41.82 62.94 42.33 62.98 42.22 62.98 42.22"/><polygon class="cls-89" points="62.94 42.33 62.06 41.82 62.02 41.95 62.9 42.46 62.94 42.33 62.94 42.33"/><polygon class="cls-90" points="62.9 42.46 62.02 41.95 61.98 42.08 62.86 42.59 62.9 42.46 62.9 42.46"/><polygon class="cls-91" points="62.86 42.59 61.98 42.08 61.94 42.22 62.82 42.73 62.86 42.59 62.86 42.59"/><polygon class="cls-92" points="62.82 42.73 61.94 42.22 61.9 42.36 62.78 42.87 62.82 42.73 62.82 42.73"/><polygon class="cls-93" points="62.78 42.87 61.9 42.36 61.87 42.5 62.74 43.01 62.78 42.87 62.78 42.87"/><polygon class="cls-94" points="62.74 43.01 61.87 42.5 61.84 42.64 62.72 43.15 62.74 43.01 62.74 43.01"/><polygon class="cls-95" points="62.72 43.15 61.84 42.64 61.81 42.78 62.69 43.29 62.72 43.15 62.72 43.15"/><polygon class="cls-96" points="62.69 43.29 61.81 42.78 61.8 42.92 62.67 43.43 62.69 43.29 62.69 43.29"/><polygon class="cls-97" points="62.67 43.43 61.8 42.92 61.79 42.98 62.67 43.49 62.67 43.43 62.67 43.43"/></g><g class="cls-117"><polygon class="cls-61" points="65.2 38.74 64.32 38.23 64.24 38.2 65.12 38.71 65.2 38.74 65.2 38.74"/><polygon class="cls-62" points="65.12 38.71 64.24 38.2 64.17 38.18 65.05 38.69 65.12 38.71 65.12 38.71"/><polygon class="cls-63" points="65.05 38.69 64.17 38.18 64.11 38.17 64.99 38.68 65.05 38.69 65.05 38.69"/><polygon class="cls-99" points="64.99 38.68 64.11 38.17 64.06 38.16 64.94 38.68 64.99 38.68 64.99 38.68"/><polygon class="cls-100" points="64.94 38.68 64.06 38.16 64.02 38.17 64.9 38.68 64.94 38.68 64.94 38.68"/><polygon class="cls-101" points="64.9 38.68 64.02 38.17 63.97 38.17 64.85 38.68 64.9 38.68 64.9 38.68"/><polygon class="cls-102" points="64.85 38.68 63.97 38.17 63.93 38.18 64.81 38.69 64.85 38.68 64.85 38.68"/><polygon class="cls-103" points="64.81 38.69 63.93 38.18 63.89 38.19 64.77 38.7 64.81 38.69 64.81 38.69"/><polygon class="cls-104" points="64.77 38.7 63.89 38.19 63.85 38.2 64.73 38.71 64.77 38.7 64.77 38.7"/><polygon class="cls-105" points="64.73 38.71 63.85 38.2 63.81 38.21 64.69 38.72 64.73 38.71 64.73 38.71"/><polygon class="cls-106" points="64.69 38.72 63.81 38.21 63.77 38.23 64.65 38.74 64.69 38.72 64.69 38.72"/><polygon class="cls-107" points="64.65 38.74 63.77 38.23 63.73 38.24 64.61 38.76 64.65 38.74 64.65 38.74"/><polygon class="cls-108" points="64.61 38.76 63.73 38.24 63.69 38.27 64.56 38.78 64.61 38.76 64.61 38.76"/><polygon class="cls-97" points="64.56 38.78 63.69 38.27 63.65 38.29 64.53 38.79 64.56 38.78 64.56 38.78"/><polygon class="cls-96" points="64.53 38.79 63.65 38.29 63.62 38.3 64.49 38.81 64.53 38.79 64.53 38.79"/></g><g class="cls-118"><polygon class="cls-96" points="64.49 38.81 63.62 38.3 63.61 38.31 64.48 38.82 64.49 38.81 64.49 38.81"/><polygon class="cls-95" points="64.48 38.82 63.61 38.31 63.56 38.34 64.44 38.84 64.48 38.82 64.48 38.82"/><polygon class="cls-94" points="64.44 38.84 63.56 38.34 63.52 38.36 64.4 38.88 64.44 38.84 64.44 38.84"/><polygon class="cls-93" points="64.4 38.88 63.52 38.36 63.48 38.4 64.36 38.9 64.4 38.88 64.4 38.88"/><polygon class="cls-92" points="64.36 38.9 63.48 38.4 63.43 38.43 64.31 38.94 64.36 38.9 64.36 38.9"/><polygon class="cls-91" points="64.31 38.94 63.43 38.43 63.39 38.47 64.27 38.98 64.31 38.94 64.31 38.94"/><polygon class="cls-90" points="64.27 38.98 63.39 38.47 63.34 38.5 64.22 39.01 64.27 38.98 64.27 38.98"/><polygon class="cls-89" points="64.22 39.01 63.34 38.5 63.3 38.54 64.18 39.05 64.22 39.01 64.22 39.01"/><polygon class="cls-88" points="64.18 39.05 63.3 38.54 63.26 38.59 64.14 39.09 64.18 39.05 64.18 39.05"/><polygon class="cls-87" points="64.14 39.09 63.26 38.59 63.22 38.63 64.1 39.14 64.14 39.09 64.14 39.09"/><polygon class="cls-86" points="64.1 39.14 63.22 38.63 63.18 38.67 64.06 39.18 64.1 39.14 64.1 39.14"/><polygon class="cls-84" points="64.06 39.18 63.18 38.67 63.14 38.71 64.02 39.22 64.06 39.18 64.06 39.18"/><polygon class="cls-84" points="64.02 39.22 63.14 38.71 63.1 38.76 63.98 39.27 64.02 39.22 64.02 39.22"/><polygon class="cls-84" points="63.98 39.27 63.1 38.76 63.06 38.82 63.94 39.33 63.98 39.27 63.98 39.27"/><polygon class="cls-84" points="63.94 39.33 63.06 38.82 63 38.91 63.88 39.42 63.94 39.33 63.94 39.33"/><polygon class="cls-85" points="63.88 39.42 63 38.91 62.93 39.02 63.8 39.53 63.88 39.42 63.88 39.42"/><polygon class="cls-84" points="63.8 39.53 62.93 39.02 62.88 39.11 63.75 39.62 63.8 39.53 63.8 39.53"/><polygon class="cls-84" points="63.75 39.62 62.88 39.11 62.84 39.17 63.72 39.68 63.75 39.62 63.75 39.62"/><polygon class="cls-84" points="63.72 39.68 62.84 39.17 62.82 39.22 63.7 39.73 63.72 39.68 63.72 39.68"/><polygon class="cls-84" points="63.7 39.73 62.82 39.22 62.8 39.27 63.68 39.78 63.7 39.73 63.7 39.73"/><polygon class="cls-86" points="63.68 39.78 62.8 39.27 62.78 39.31 63.66 39.83 63.68 39.78 63.68 39.78"/><polygon class="cls-87" points="63.66 39.83 62.78 39.31 62.76 39.36 63.64 39.88 63.66 39.83 63.66 39.83"/><polygon class="cls-88" points="63.64 39.88 62.76 39.36 62.74 39.41 63.62 39.92 63.64 39.88 63.64 39.88"/><polygon class="cls-89" points="63.62 39.92 62.74 39.41 62.72 39.46 63.6 39.97 63.62 39.92 63.62 39.92"/><polygon class="cls-90" points="63.6 39.97 62.72 39.46 62.71 39.51 63.59 40.02 63.6 39.97 63.6 39.97"/><polygon class="cls-91" points="63.59 40.02 62.71 39.51 62.69 39.57 63.57 40.08 63.59 40.02 63.59 40.02"/><polygon class="cls-92" points="63.57 40.08 62.69 39.57 62.68 39.62 63.56 40.13 63.57 40.08 63.57 40.08"/><polygon class="cls-93" points="63.56 40.13 62.68 39.62 62.67 39.67 63.54 40.18 63.56 40.13 63.56 40.13"/><polygon class="cls-94" points="63.54 40.18 62.67 39.67 62.66 39.72 63.53 40.23 63.54 40.18 63.54 40.18"/><polygon class="cls-95" points="63.53 40.23 62.66 39.72 62.65 39.77 63.53 40.28 63.53 40.23 63.53 40.23"/><polygon class="cls-96" points="63.53 40.28 62.65 39.77 62.64 39.82 63.52 40.33 63.53 40.28 63.53 40.28"/><polygon class="cls-97" points="63.52 40.33 62.64 39.82 62.63 39.87 63.51 40.38 63.52 40.33 63.52 40.33"/><polygon class="cls-108" points="63.51 40.38 62.63 39.87 62.63 39.92 63.51 40.43 63.51 40.38 63.51 40.38"/><polygon class="cls-107" points="63.51 40.43 62.63 39.92 62.63 39.97 63.51 40.48 63.51 40.43 63.51 40.43"/><polygon class="cls-106" points="63.51 40.48 62.63 39.97 62.63 40.01 62.63 40.02 63.51 40.53 63.51 40.52 63.51 40.48 63.51 40.48"/><polygon class="cls-105" points="63.51 40.53 62.63 40.02 62.63 40.06 63.51 40.57 63.51 40.53 63.51 40.53"/><polygon class="cls-104" points="63.51 40.57 62.63 40.06 62.63 40.1 63.51 40.62 63.51 40.57 63.51 40.57"/><polygon class="cls-103" points="63.51 40.62 62.63 40.1 62.64 40.15 63.51 40.66 63.51 40.62 63.51 40.62"/><polygon class="cls-102" points="63.51 40.66 62.64 40.15 62.64 40.2 63.52 40.71 63.51 40.66 63.51 40.66"/><polygon class="cls-101" points="63.52 40.71 62.64 40.2 62.65 40.24 63.53 40.76 63.52 40.71 63.52 40.71"/><polygon class="cls-100" points="63.53 40.76 62.65 40.24 62.66 40.29 63.54 40.8 63.53 40.76 63.53 40.76"/><polygon class="cls-99" points="63.54 40.8 62.66 40.29 62.68 40.34 63.56 40.86 63.54 40.8 63.54 40.8"/><polygon class="cls-63" points="63.56 40.86 62.68 40.34 62.71 40.41 63.59 40.91 63.56 40.86 63.56 40.86"/><polygon class="cls-62" points="63.59 40.91 62.71 40.41 62.75 40.48 63.63 40.99 63.59 40.91 63.59 40.91"/><polygon class="cls-61" points="63.63 40.99 62.75 40.48 62.77 40.51 63.65 41.02 63.63 40.99 63.63 40.99"/></g><path class="cls-86" d="M64.49,38.81a2.17,2.17,0,0,0-1,1.71.82.82,0,0,0,.14.5,5.14,5.14,0,0,0-1,2.47l3.67-2.12c-.1-.77-.48-1.26-1-1.33a2.06,2.06,0,0,0,.14-.66c0-.63-.45-.88-1-.57Z"/><path class="cls-110" d="M60.34,42.18V42l0-.16,0-.16,0-.17,0-.17,0-.17,0-.17,0-.17,0-.14h0v0l0-.17.06-.16.06-.17.07-.16,0-.12h0v0L61,39.7l.08-.17.1-.2.12-.21,0,0,0,0a4.11,4.11,0,0,1,.24-.39l.21-.3.14-.19.13-.16.13-.14.12-.14,0,0h0l.1-.11.14-.13.14-.14.15-.13.07-.05,0,0,0,0,.15-.11.14-.1.14-.1.14-.08,0,0,.1-.06.14-.07.09,0h0l.13-.06.14,0h0l.09,0,.13,0h.14l.14,0h.47l.19,0h0l0,0,.18,0h0l.26.12.88.51-.25-.11-.2-.06,0,0-.24,0h-.33l-.28,0h0l-.29.08h0a1.66,1.66,0,0,0-.31.12h0l-.33.17a5.5,5.5,0,0,0-.66.45v0a5.24,5.24,0,0,0-.6.56h0a7.23,7.23,0,0,0-1,1.4l0,0a6.18,6.18,0,0,0-.39.77h0a6.64,6.64,0,0,0-.3.81h0a6.07,6.07,0,0,0-.19.82,4.4,4.4,0,0,0-.07.8c0,.12,0,.24,0,.36v0c0,.11,0,.21.05.31v0c0,.1,0,.19.08.28v0l.09.22,0,0,.13.23a1.24,1.24,0,0,0,.22.28l.07.06a1.09,1.09,0,0,0,.27.21l-.88-.51a1.09,1.09,0,0,1-.27-.21L61,44.16a1,1,0,0,1-.23-.28h0l-.12-.23h0v0l-.07-.16,0-.08v0l0-.05,0-.17V43l0-.15v-.47h0v-.15Z"/><path class="cls-111" d="M66.34,41.37c-.1-.77-.48-1.26-1-1.33a2.06,2.06,0,0,0,.14-.66c0-.63-.45-.88-1-.57a2.17,2.17,0,0,0-1,1.71.82.82,0,0,0,.14.5,5.14,5.14,0,0,0-1,2.47l3.67-2.12ZM67.78,39a7.22,7.22,0,0,1-3.27,5.68c-1.82,1-3.29.2-3.3-1.88a7.23,7.23,0,0,1,3.28-5.68c1.81-1,3.29-.21,3.29,1.88Z"/><path class="cls-119" d="M52.13,46.58Q58.61,70,65.08,93.47a1.2,1.2,0,0,0,2.32-.64Q60.94,69.39,54.46,45.94a1.21,1.21,0,0,0-2.33.64Z"/><path class="cls-119" d="M41.92,51.8q6.46,23.45,12.94,46.88A1.2,1.2,0,0,0,57.18,98Q50.72,74.6,44.24,51.16a1.2,1.2,0,0,0-2.32.64Z"/><path class="cls-119" d="M54.51,51.81l-10,6.09c-1.32.81-.11,2.9,1.22,2.08l10-6.09c1.33-.81.12-2.9-1.21-2.08Z"/><path class="cls-119" d="M56.39,59.7l-9.34,6c-1.3.84-.09,2.92,1.22,2.08l9.34-6c1.3-.84.1-2.92-1.22-2.08Z"/><path class="cls-119" d="M58.37,68.52,49.11,74a1.2,1.2,0,0,0,1.21,2.08l9.27-5.47a1.21,1.21,0,0,0-1.22-2.08Z"/><path class="cls-119" d="M60.66,75.19,51.34,81c-1.31.82-.11,2.91,1.21,2.08l9.33-5.85c1.31-.83.1-2.91-1.22-2.08Z"/><path class="cls-119" d="M62.68,83.34l-9.2,5.53A1.21,1.21,0,0,0,54.7,91l9.2-5.53a1.21,1.21,0,0,0-1.22-2.08Z"/><path class="cls-120" d="M85.87,37.53S85,35.05,81.4,36.21a65.43,65.43,0,0,0-7,2.79l-7.53-4.21s-1.47.75-1.46,1.88c0,0,6,5.94,9.28,6.28,0,0,13.9-.18,11.16-5.42Z"/><path class="cls-121" d="M66.6,35a7.94,7.94,0,0,0-1.47-2.25,3.42,3.42,0,0,0-1.52-.7c-.23,0,.45.71.68.94s.36,1-1.45.16-1.47-.47-1.45-.3,1.88,3,4,3.64A2.74,2.74,0,0,1,66.6,35Z"/><path class="cls-122" d="M74.71,43c-3.27-.34-9.28-6.28-9.28-6.28a1.51,1.51,0,0,1,.28-.85C67.06,36.9,71,40,73.44,41.53c3,1.86,12.74-2.92,12.76-3C86.8,42.79,74.71,43,74.71,43Z"/><path class="cls-123" d="M79.94,89.44s-1.5.23-1.14,1.09,2.09,2.18,2.32,2.73,1.63,2.5,2.09,2.32,1.63.09,1.5-2.14-2.77-4.09-4.77-4Z"/><path class="cls-123" d="M77.07,97.62s.73,2.14-1.09,2.64-1.27-.64-5.22.36-4.41-1-4.32-1.5,2.73-1.27,3.59-1.5l2.5-.63h4.69l-.15.63Z"/><path class="cls-124" d="M84.54,60.11s0,12.91,0,14.36,1.62,12.91.64,17.9c0,0-2.81,2.83-5.3,0,0,0-.79-14.33-1.51-17.57s-.48-13.12-.48-13.12l6.62-1.57Z"/><path class="cls-124" d="M79.61,62s-.64,8.33-1.3,16.59c0,0-.42,16.4-.81,18.76,0,0-5.29,1.31-5.81-1.18,0,0,.13-14.43,0-17.44S70.83,66.2,72,61.35s7.59.6,7.59.6Z"/><path class="cls-125" d="M77.5,97.3c.39-2.36.81-18.76.81-18.76.44-5.56,1-12.08,1.18-15.14l-3.58.7a57,57,0,0,0-1.75,16.48c.28,7.17.39,14.23.43,17.06a13.09,13.09,0,0,0,2.91-.34Z"/><path class="cls-125" d="M85.21,92.37c1-5-.64-16.45-.64-17.9s0-13.15,0-14.26L81.7,62.39s-.9,9.23,0,14.48c.83,4.78.3,14.09.7,16.76a4.48,4.48,0,0,0,2.81-1.26Z"/><path class="cls-120" d="M85.33,36.68s2.73,1.37,1.18,6S83.88,50.32,84,52a90.49,90.49,0,0,0,.89,9.3s.21,2-7.2,3c0,0-6.68.78-5.5-3.95s.27-9.88.09-11.7S71,43.23,75.52,40.77s6.91-4.27,9.81-4.09Z"/><path class="cls-121" d="M82.11,34.39a7.89,7.89,0,0,0,.54,3.94c.75,1.37-5,2.63-5.09,1.36a5.49,5.49,0,0,0-.29-4.7c-.73-1.29,4.84-.6,4.84-.6Z"/><path class="cls-126" d="M82.62,38.41a7,7,0,0,1-.57-3.51L77.88,37h0c.15,0,3,.75,3.58,2.77.85-.35,1.43-.83,1.16-1.34Z"/><path class="cls-121" d="M76.1,28a10.33,10.33,0,0,0-.71,4.09c.19,2-.12,2.45,0,3.36a2.23,2.23,0,0,0,.46,1.33c.63.61,1.93.84,3.69.19,2.12-.78,4.36-3.7,3.45-6.32S79.29,25.82,76.1,28Z"/><path class="cls-127" d="M82.91,33.45a37.86,37.86,0,0,0-3-5.35,6.48,6.48,0,0,0-1.49-1A4.75,4.75,0,0,0,76.1,28a11.15,11.15,0,0,0-.44,1.41c.5.57,1.53,1.22,1.69,1.7a6.06,6.06,0,0,1-.18,3.6c-.34.76,1,1.87.74,2.54v.09a6,6,0,0,0,1.65-.37,6.19,6.19,0,0,0,3.36-3.48Z"/><path class="cls-128" d="M75.47,27.06A2.71,2.71,0,0,0,77,29.85c1.12.55,1,2.35,1,2.68a8.19,8.19,0,0,0-.24,2c.26.37,1.13-.8,1.54-.72,1.06.21.65,1.19-.31,2.22s1.67,1.55,2.91.65c.66-.48.9-.77,1.77-2.5C84.91,31.72,85,28.7,82,27.09s-4.69.7-6.53,0Z"/><path class="cls-129" d="M81.88,36.73c.66-.48.9-.77,1.77-2.5C84.91,31.72,85,28.7,82,27.09s-4.69.7-6.53,0a2.45,2.45,0,0,0,0,.76c1,.15,3.52.65,4.19,1.77.82,1.36,1.73.92,1.65,2.61s.36,3.78-2.38,4.7a2.78,2.78,0,0,0,2.94-.17Z"/><path class="cls-130" d="M77.88,38.93,76,40.5s5.79,1.65,7.49-1.18a1.65,1.65,0,0,0-1.06-2s-.2,2.31-4.57,1.61Z"/><path class="cls-122" d="M72.16,60.38c1.18-4.72.27-9.88.09-11.7S71,43.3,75.39,40.85c1.53.93,3.74,2.92,2.49,6.3-1.55,4.18-2.06,13.24-2.37,17.17-1.83-.21-4.08-1-3.35-3.94Z"/><path class="cls-120" d="M77.89,43.49s.19-2.38-3.17-2.77a58.52,58.52,0,0,0-6.78-.33l-4.6-6.3s-1.49.07-1.91,1c0,0,2.7,7.14,5.26,8.64,0,0,11.48,5.1,11.2-.24Z"/><path class="cls-121" d="M63,34.13a7.19,7.19,0,0,0-.37-2.41,3,3,0,0,0-1-1.14c-.18-.1.11.75.21,1s-.09,1-1.26-.42-1-.94-1.07-.79.41,3.18,2,4.52A2.48,2.48,0,0,1,63,34.13Z"/><path class="cls-122" d="M66.69,43.73c-2.56-1.5-5.26-8.64-5.26-8.64A1.31,1.31,0,0,1,62,34.5c.7,1.39,2.78,5.42,4.2,7.59,1.73,2.64,11.56,2.41,11.61,2.34-1.11,3.73-11.1-.7-11.1-.7Z"/></g></g></svg>