<svg id="Versiones_de_Marca" data-name="Versiones de Marca" xmlns="http://www.w3.org/2000/svg" viewBox="0 0 493.71 181.75"><defs><style>.cls-1{fill:#ff8a65;}</style></defs><title>PMV-LOGO</title><path class="cls-1" d="M261,64.16A30.36,30.36,0,0,1,272.84,76a35.88,35.88,0,0,1,4.28,17.8,35.85,35.85,0,0,1-4.28,17.8A30.36,30.36,0,0,1,261,123.5a33.48,33.48,0,0,1-16.7,4.22q-12.6,0-19.82-8v30.71H205.42V60.92h10.64a7.59,7.59,0,0,1,7.59,7.58h0q7.09-8.55,20.68-8.56A33.59,33.59,0,0,1,261,64.16Zm-7.95,43c3.13-3.31,4.71-7.73,4.71-13.28s-1.58-10-4.71-13.27a17.13,17.13,0,0,0-24.11,0q-4.71,4.95-4.71,13.27T229,107.11a17.15,17.15,0,0,0,24.11,0Z"/><path class="cls-1" d="M390.31,67.22q7.28,7.29,7.27,21.84v37.68H378.5V92q0-7.83-3.24-11.69T366,76.46q-6.74,0-10.65,4.34t-3.91,12.91v33H332.37V92q0-15.54-12.48-15.54a13.48,13.48,0,0,0-10.52,4.34q-3.92,4.35-3.92,12.91v33H286.37V60.92H297a7.59,7.59,0,0,1,7.59,7.58h0a24.26,24.26,0,0,1,9-6.36,30.46,30.46,0,0,1,11.69-2.2,28.35,28.35,0,0,1,12.6,2.75,22.33,22.33,0,0,1,9.05,8,26.89,26.89,0,0,1,10.22-7.95,32.16,32.16,0,0,1,13.52-2.82Q383,59.94,390.31,67.22Z"/><path class="cls-1" d="M475.67,60.92,447.9,126.74H428.2L400.55,60.92h11.34a12.43,12.43,0,0,1,11.51,7.74l15.08,37,15.64-37.17a12.43,12.43,0,0,1,11.46-7.61Z"/><path class="cls-1" d="M167.89,176.78l-34.54-37.24a30.21,30.21,0,0,1-2.76-3.47,29.68,29.68,0,0,1-3.5-26.45,30.32,30.32,0,0,1,1.66-3.86l.1-.19.32-.59.23.23a3.38,3.38,0,0,0,.26.27L158,135.69a2.88,2.88,0,0,0,1.1.75,2.33,2.33,0,0,0,3.05-1.3c.68-1.58,1.53-3.09,2.36-4.6a2.49,2.49,0,0,0,0-2.63c-2.52-4.57-5-9.16-7.47-13.74l-7.85-14.45q-4.2-7.71-8.39-15.42a1,1,0,0,1,0-1.07c3.47-6.67,1.6-3,5-9.73A48.09,48.09,0,0,0,150,62.65a13.07,13.07,0,0,0,.28-5.93A5,5,0,0,0,143.19,53a12.93,12.93,0,0,0-4.68,3.65,48.88,48.88,0,0,0-6.38,9.77c-3.47,6.67-1.58,3-5,9.73a1,1,0,0,1-.87.62L108.8,78.88l-16.33,2c-5.18.62-10.35,1.26-15.53,1.84a2.51,2.51,0,0,0-2.16,1.49c-.76,1.55-1.5,3.12-2.4,4.59A2.32,2.32,0,0,0,73.09,92a2.87,2.87,0,0,0,1.25.47l41,5.63.37.06.32,0c-.11.23-.2.41-.3.6l-.09.19a30.21,30.21,0,0,1-2.2,3.59,29.78,29.78,0,0,1-28,12.19l-50.35-6.65a4.19,4.19,0,0,1-3-6.36,4.14,4.14,0,0,1,1.14-1.19l135.57-96A4.12,4.12,0,0,1,173,4.19a4.12,4.12,0,0,1,2.12,3.63l0,166.12a4.41,4.41,0,0,1-.32,1.62A4.19,4.19,0,0,1,167.89,176.78Z"/></svg>