<svg xmlns="http://www.w3.org/2000/svg" viewBox="0 0 199.61 24.55"><defs><style>.cls-1{fill:#edd920;}</style></defs><g id="Layer_2" data-name="Layer 2"><g id="Layer_1-2" data-name="Layer 1"><path class="cls-1" d="M33.35,12.28a12.19,12.19,0,0,1-3.58,8.65,12.33,12.33,0,0,1-8.7,3.62H12.28a12.3,12.3,0,0,1-8.7-21A12.15,12.15,0,0,1,12.28,0h8.79A12.26,12.26,0,0,1,33.35,12.28Z"/><path class="cls-1" d="M199.61,12.28a12.58,12.58,0,0,1-3.42,8.65,11.2,11.2,0,0,1-8.2,3.62H56.35C50,24.55,44.78,19,44.78,12.28a12.67,12.67,0,0,1,3.42-8.7A11.1,11.1,0,0,1,56.35,0H188C194.41,0,199.61,5.46,199.61,12.28Z"/></g></g></svg>