<svg xmlns="http://www.w3.org/2000/svg" xmlns:xlink="http://www.w3.org/1999/xlink" viewBox="0 0 90.39 120.39"><defs><style>.cls-1{fill:#ddd;}.cls-2{fill:#f9e573;}.cls-3{clip-path:url(#clip-path);}.cls-4{clip-path:url(#clip-path-2);}.cls-5{fill:#606060;}.cls-6{fill:#444;}.cls-7{fill:#919191;}.cls-8{fill:#96c4de;}.cls-9{fill:#c0c4d0;}.cls-10{fill:#cebd5b;}.cls-11{fill:#fcfcfc;}.cls-12{clip-path:url(#clip-path-3);}.cls-13{fill:#eada68;}.cls-14{fill:#dff3fd;}.cls-15{clip-path:url(#clip-path-4);}.cls-16{fill:#def0f9;}.cls-17{fill:#efb184;}.cls-18{fill:#c1dbe5;}.cls-19{fill:#131315;}.cls-20{fill:#283744;}.cls-21{fill:#1d2833;}.cls-22{fill:#dd9569;}.cls-23{fill:#e7a376;}.cls-24{fill:#24160c;}.cls-25{fill:#331d0f;}.cls-26{fill:#0e1216;}.cls-27{fill:#131c24;}.cls-28{fill:#1d1d21;}.cls-29{fill:#171719;}.cls-30{fill:#fff;}.cls-31{fill:#f2b78f;}.cls-32{fill:#b4b9bc;}.cls-33{fill:#7d8183;}.cls-34{fill:#e3e5e5;}.cls-35{fill:#bdbbbb;}.cls-36{fill:#d3d1d0;}.cls-37{fill:#d5dfe6;}.cls-38{fill:#e9f0f4;}.cls-39{fill:#e6f8ff;}</style><clipPath id="clip-path"><polyline class="cls-1" points="62.28 120.39 30.67 102.14 38.6 97.56 38.99 97.79 50.19 91.32 81.34 109.31 62.28 120.39"/></clipPath><clipPath id="clip-path-2"><path class="cls-1" d="M26.63,104.47,0,89l12.44-7.37,2.18,10.75,10-5.77v2.84l13.93,8.09-7.91,4.6h0l-4,2.33M73,77.69V75.2l-12-7V65.62l10.82-6.25L88.12,69,73,77.69"/></clipPath><clipPath id="clip-path-3"><path class="cls-2" d="M25.14,83.53,15.38,40.27,65.44,11.36,75.2,54.63,25.14,83.53M18.8,46.21h0l7.77,34.43L44.32,70.39,36.55,36,18.8,46.21m25.26-2.13h0l5.06,22.41L72.39,53.05l-5.06-22.4L44.06,44.08M63.55,13.9l-46.71,27,.86,3.82,46.71-27-.86-3.82M43.15,40.06h0l.39,1.69,14.75-8.52,8.51-4.92h0l-.38-1.69L43.15,40.06m-.86-3.82h0l.38,1.69L66,24.5l-.39-1.69L42.29,36.24M64.84,19.63,41.58,33.06l.38,1.7L65.23,21.32l-.39-1.69"/></clipPath><clipPath id="clip-path-4"><path class="cls-1" d="M77.55,97.32a18.58,18.58,0,0,1-9.11-2.19c-5-2.91-5.08-7.63-.06-10.55a18.52,18.52,0,0,1,9.09-2.18,18.75,18.75,0,0,1,9.12,2.18c5,2.92,5.07,7.64,0,10.55a18.44,18.44,0,0,1-9.09,2.19"/></clipPath></defs><g id="Layer_2" data-name="Layer 2"><g id="Layer_1-2" data-name="Layer 1"><polyline class="cls-1" points="62.28 120.39 30.67 102.14 38.6 97.56 38.99 97.79 50.19 91.32 81.34 109.31 62.28 120.39"/><path class="cls-1" d="M26.63,104.47,0,89l12.44-7.37,2.18,10.75,10-5.77v2.84l13.93,8.09-7.91,4.6h0l-4,2.33M73,77.69V75.2l-12-7V65.62l10.82-6.25L88.12,69,73,77.69"/><polyline class="cls-1" points="30.67 102.14 30.65 102.13 38.56 97.53 38.6 97.56 30.67 102.14"/><polyline class="cls-5" points="24.63 86.5 24.64 89.44 38.99 97.79 38.98 94.84 24.63 86.5"/><polyline class="cls-6" points="38.98 94.84 38.99 97.79 73.01 78.15 73 75.2 38.98 94.84"/><polyline class="cls-7" points="24.63 86.5 38.98 94.84 73 75.2 58.65 66.86 24.63 86.5"/><path class="cls-7" d="M24.91,86.43l10.4-6V84L24.91,86.43m30.28-7.07L61,76l0-7.8,12,7L55.19,79.36"/><polyline class="cls-8" points="37.89 89.34 35.33 87.86 35.26 61.32 37.81 62.8 37.89 89.34"/><polyline class="cls-9" points="37.81 62.8 35.26 61.32 58.37 47.98 60.92 49.46 37.81 62.8"/><polyline class="cls-6" points="60.92 49.46 61 76.01 37.89 89.34 37.81 62.8 60.92 49.46"/><polygon class="cls-5" points="14.62 92.38 12.15 91.69 1.6 39.63 4.06 40.32 14.62 92.38 14.62 92.38"/><polygon class="cls-6" points="4.06 40.32 1.6 39.63 70.25 0 72.71 0.68 4.06 40.32 4.06 40.32"/><polyline class="cls-7" points="72.71 0.68 83.27 52.74 14.62 92.38 4.06 40.32 72.71 0.68"/><path class="cls-10" d="M16.68,88.5,6.94,41,70.87,4.83l9.38,46.89L16.68,88.5M65.44,11.36,15.38,40.27l9.76,43.26L75.2,54.63,65.44,11.36M27.6,77.67l-2.25-10,13.89-8,2.26,10-13.9,8M23.51,59.54l-.32-1.41,13.9-8,.32,1.42-13.9,8m-.72-3.18L22.48,55l13.89-8,.32,1.42-13.9,8m26.11-.88L46.63,45.4,66.38,34l2.28,10.08L48.9,55.48m-27-2.94-.31-1.4,13.89-8,.32,1.41-13.9,8m-.71-3.17L20.9,48l13.9-8,.32,1.41-13.9,8M17.7,44.69l-.86-3.82,46.71-27,.86,3.82-46.71,27M43.09,26.8,17.73,41.44l.4,1.8L43.5,28.6l-.41-1.8M62.85,15.39l-10,5.8.4,1.8,10-5.8-.4-1.8M43.54,41.75l-.39-1.69.39,1.69L66.8,28.31h0l-8.51,4.92L43.54,41.75m-1.58-7-.38-1.7L64.84,19.63l.39,1.69L42,34.76M53.21,23l-.4-1.8,10-5.8.4,1.8-10,5.8m-4.09,43.5L44.06,44.08,67.33,30.65l5.06,22.4L49.12,66.49M66.38,34,46.63,45.4,48.9,55.48,68.66,44.07,66.38,34M42.67,37.93l-.38-1.69L65.56,22.81,66,24.5,42.67,37.93M26.57,80.64,18.8,46.21,36.55,36l7.77,34.43L26.57,80.64m12.67-21-13.89,8,2.25,10,13.9-8-2.26-10M37.09,50.1l-13.9,8,.32,1.41,13.9-8-.32-1.42m-.72-3.18L22.48,55l.31,1.41,13.9-8-.32-1.42m-.86-3.81-13.89,8,.31,1.4,13.9-8-.32-1.41m-.71-3.18L20.9,48l.32,1.42,13.9-8-.32-1.41m8.74,1.82-.39-1.69L66.42,26.62l.38,1.69L43.54,41.75M18.13,43.24l-.4-1.8L43.09,26.8l.41,1.8L18.13,43.24"/><polyline class="cls-6" points="62.85 15.39 63.26 17.19 53.21 22.99 52.8 21.19 62.85 15.39"/><path class="cls-11" d="M68.66,44.07,66.38,34,46.63,45.4,48.9,55.48,68.66,44.07m-24.6,0L67.33,30.65l5.06,22.4L49.12,66.49,44.06,44.08"/><polyline class="cls-6" points="65.56 22.81 65.94 24.5 42.67 37.94 42.29 36.24 65.56 22.81"/><polygon class="cls-6" points="35.51 43.11 35.83 44.52 21.93 52.54 21.62 51.13 35.51 43.11 35.51 43.11"/><polygon class="cls-6" points="34.8 39.93 35.12 41.34 21.22 49.37 20.9 47.95 34.8 39.93 34.8 39.93"/><path class="cls-11" d="M35.83,44.52l-.32-1.41-13.89,8,.31,1.4,13.9-8m.86,3.82-.32-1.42L22.48,55l.31,1.41,13.9-8m-1.57-7-.32-1.41L20.9,48l.32,1.42,13.9-8m2.29,10.18-.32-1.42-13.9,8,.32,1.41,13.9-8M41.5,69.64l-2.26-10-13.89,8,2.25,10,13.9-8M18.8,46.21,36.55,36l7.77,34.43L26.57,80.64,18.8,46.21"/><polyline class="cls-6" points="66.42 26.62 66.8 28.31 43.53 41.75 43.15 40.06 66.42 26.62"/><polyline class="cls-6" points="43.09 26.8 43.5 28.6 18.13 43.24 17.73 41.44 43.09 26.8"/><path class="cls-2" d="M25.14,83.53,15.38,40.27,65.44,11.36,75.2,54.63,25.14,83.53M18.8,46.21h0l7.77,34.43L44.32,70.39,36.55,36,18.8,46.21m25.26-2.13h0l5.06,22.41L72.39,53.05l-5.06-22.4L44.06,44.08M63.55,13.9l-46.71,27,.86,3.82,46.71-27-.86-3.82M43.15,40.06h0l.39,1.69,14.75-8.52,8.51-4.92h0l-.38-1.69L43.15,40.06m-.86-3.82h0l.38,1.69L66,24.5l-.39-1.69L42.29,36.24M64.84,19.63,41.58,33.06l.38,1.7L65.23,21.32l-.39-1.69"/><polygon class="cls-6" points="68.66 44.08 66.38 33.99 46.63 45.4 48.9 55.48 68.66 44.08 68.66 44.08"/><polygon class="cls-6" points="64.84 19.63 65.23 21.32 41.96 34.76 41.58 33.06 64.84 19.63 64.84 19.63"/><polygon class="cls-6" points="39.24 59.64 41.5 69.64 27.6 77.67 25.35 67.66 39.24 59.64 39.24 59.64"/><path class="cls-13" d="M63.25,17.19l-.4-1.8-10,5.8.4,1.8,10-5.8ZM43.5,28.6l-.41-1.8L17.73,41.44l.4,1.8L43.5,28.6ZM16.84,40.87l46.71-27,.86,3.82-46.71,27-.86-3.82Z"/><polygon class="cls-6" points="36.37 46.92 36.69 48.34 22.8 56.36 22.48 54.95 36.37 46.92 36.37 46.92"/><polygon class="cls-6" points="37.09 50.1 37.41 51.52 23.51 59.54 23.2 58.13 37.09 50.1 37.09 50.1"/><polygon class="cls-5" points="23.69 31.39 26.44 44.93 18.8 49.25 15.3 48.19 12.96 47.43 11.16 38.63 23.69 31.39 23.69 31.39"/><polygon class="cls-6" points="12.96 47.43 17.41 45.47 18.8 49.25 12.96 47.43 12.96 47.43"/><polygon class="cls-14" points="22.04 35.14 22.2 35.95 14.4 40.56 14.21 39.66 22.04 35.14 22.04 35.14"/><polygon class="cls-14" points="22.63 37.61 22.8 38.42 14.99 43.03 14.81 42.13 22.63 37.61 22.63 37.61"/><polygon class="cls-14" points="23.4 39.95 23.56 40.76 15.76 45.36 15.57 44.46 23.4 39.95 23.4 39.95"/><path class="cls-1" d="M77.55,97.32a18.58,18.58,0,0,1-9.11-2.19c-5-2.91-5.08-7.63-.06-10.55a18.52,18.52,0,0,1,9.09-2.18,18.75,18.75,0,0,1,9.12,2.18c5,2.92,5.07,7.64,0,10.55a18.44,18.44,0,0,1-9.09,2.19"/><path class="cls-16" d="M78.63,37.57s-.21-2.33-3.51-2.16a58.1,58.1,0,0,0-6.61.78l-5.46-5.33s-1.42.3-1.68,1.27c0,0,3.78,6.45,6.48,7.49,0,0,11.91,3.05,10.78-2Z"/><path class="cls-17" d="M62.77,30.94A7,7,0,0,0,62,28.67a3.06,3.06,0,0,0-1.13-.94c-.2-.07.22.71.36,1s.08.95-1.28-.2-1.15-.74-1.16-.59.91,3,2.62,4.05a2.4,2.4,0,0,1,1.33-1Z"/><path class="cls-18" d="M67.85,39.62c-2.7-1-6.48-7.49-6.48-7.49a1.38,1.38,0,0,1,.44-.66c.9,1.22,3.57,4.78,5.29,6.65,2.1,2.27,11.55.44,11.58.37-.47,3.79-10.83,1.13-10.83,1.13Z"/><path class="cls-19" d="M77.25,82.69s-1.31.32-.92,1,2,1.76,2.26,2.23,1.63,2.07,2,1.87,1.45,0,1.15-2S79,82.46,77.25,82.69Z"/><path class="cls-19" d="M79,86.88s1,1.72-.49,2.47S77.26,89,74,90.55s-4-.15-4-.56,2.15-1.57,2.86-1.91l2.06-1L79,86.3l0,.58Z"/><path class="cls-20" d="M79,56.5s1,11.37,1.14,12.65,2.43,11.24,2,15.72c0,0-2.26,2.7-4.67.41,0,0-1.81-12.57-2.7-15.36s-1.44-11.53-1.44-11.53L79,56.5Z"/><path class="cls-20" d="M75.08,55.49s.87,7.34,1.7,14.62c0,0,2.45,14.3,2.51,16.41,0,0-4.36,2-5.25,0,0,0-2.34-12.54-3-15.14S68.2,60.68,68.4,56.27s6.68-.78,6.68-.78Z"/><path class="cls-21" d="M79.29,86.52c-.06-2.11-2.51-16.41-2.51-16.41-.56-4.9-1.23-10.64-1.54-13.34l-3,1.21a50.34,50.34,0,0,0,1.3,14.6c1.46,6.18,2.77,12.29,3.29,14.73a11.61,11.61,0,0,0,2.46-.79Z"/><path class="cls-21" d="M82.13,84.87c.47-4.48-1.85-14.45-2-15.72s-.64-11-.72-12l-2.74,1.54s-.08,8.19,1.12,12.75c1.1,4.15,1.35,12.39,1.91,14.71a4.07,4.07,0,0,0,2.39-1.32Z"/><path class="cls-16" d="M77.63,35.44s2.54.92,1.64,5.15-1.56,7-1.31,8.48a80.74,80.74,0,0,0,1.7,8.08s.38,1.73-6,3.34c0,0-5.8,1.34-5.23-2.92s-.74-8.72-1.08-10.29-1.66-4.67,2.1-7.28,5.64-4.43,8.21-4.56Z"/><path class="cls-17" d="M74.57,33.74a7,7,0,0,0,.87,3.41c.8,1.13-4.09,2.8-4.34,1.7a4.84,4.84,0,0,0-.72-4.1c-.76-1.07,4.19-1,4.19-1Z"/><path class="cls-22" d="M75.42,37.23a6.2,6.2,0,0,1-.85-3l-3.46,2.23h0c.13,0,2.67.37,3.41,2.09.72-.4,1.18-.88.89-1.29Z"/><path class="cls-17" d="M68.65,28.69a9.1,9.1,0,0,0-.21,3.66c.36,1.78.14,2.17.34,2.95a2,2,0,0,0,.54,1.13c.61.47,1.77.54,3.25-.2,1.79-.89,3.47-3.68,2.41-5.9s-3.73-3.84-6.33-1.64Z"/><path class="cls-23" d="M75.18,32.83a32.2,32.2,0,0,0-3.12-4.4,5.78,5.78,0,0,0-1.41-.74,4.29,4.29,0,0,0-2,1A9.65,9.65,0,0,0,68.41,30c.5.45,1.47.92,1.65,1.33a5.44,5.44,0,0,1,.2,3.18c-.22.7,1.09,1.54.9,2.16v.08a5.23,5.23,0,0,0,1.4-.49,5.43,5.43,0,0,0,2.61-3.4Z"/><path class="cls-24" d="M68,28a2.41,2.41,0,0,0,1.64,2.3c1,.37,1.13,2,1.11,2.26a7.4,7.4,0,0,0,0,1.82c.27.3.92-.81,1.29-.78.95.07.69,1-.06,2s1.62,1.2,2.62.28c.54-.49.72-.77,1.31-2.37.86-2.33.62-5-2.15-6.11S69.71,28.41,68,28Z"/><path class="cls-25" d="M74.6,35.82c.54-.49.72-.77,1.31-2.37.86-2.33.62-5-2.15-6.11S69.71,28.41,68,28a2.51,2.51,0,0,0,.09.66c.85,0,3.16.23,3.85,1.14.86,1.12,1.61.64,1.72,2.14s.68,3.28-1.63,4.36a2.44,2.44,0,0,0,2.56-.44Z"/><path class="cls-18" d="M71.31,38.15l-1.48,1.56s5.25.88,6.46-1.78a1.46,1.46,0,0,0-1.13-1.65s.06,2-3.85,1.87Z"/><path class="cls-18" d="M68,57.43a30.62,30.62,0,0,0-.69-10.15c-.33-1.57-1.62-4.61,2-7.2,1.44.67,3.58,2.2,2.81,5.3-1,3.82-.5,11.83-.38,15.31-1.63,0-4.08-.64-3.73-3.26Z"/><path class="cls-17" d="M59.37,32.88s.16-1.25-.22-1.67-1.24-2.14-1.6-2.37-.23.45-.12.91,0,1.34-.11,1.23-.89.42-.75,1.06,1.17,1.68,1.19,1.82,1.61-1,1.61-1Z"/><path class="cls-16" d="M71.11,42.93s.44-2.07-2.47-2.79a52.7,52.7,0,0,0-5.9-1.06l-3.32-6s-1.32-.12-1.79.65c0,0,1.56,6.57,3.63,8.18,0,0,9.49,5.77,9.85,1.06Z"/><path class="cls-26" d="M72.11,105.39s-1.84,1.54-1.45,3.16c0,0,.61.65,1.19-.5s1.18-2.7.26-2.66Z"/><path class="cls-19" d="M70.66,108.7s2.78,1,3.25,0a8.62,8.62,0,0,1,1.32-2c.34-.33,2.64-4.18,1.88-4.8s-1.85.48-2.18.75-3.83,3-3.83,3l-.44,3Z"/><path class="cls-27" d="M47.61,91.57s9.74,5.58,12,7.48c1.83,1.57,12,6.43,12,6.43a11.81,11.81,0,0,0-.82,3.13s-9.26-.13-15.09-5.48c0,0-19.56-4.08-17.89-14.17a61.46,61.46,0,0,1,9.88,2.61Z"/><path class="cls-28" d="M75.23,106.79c.3-.29,2.15-3.38,2-4.48a1,1,0,0,0-1.16.73A32.74,32.74,0,0,1,74,107c-.22.28-1.48,1.5-1.28,2.12.56,0,1,0,1.23-.39a8.62,8.62,0,0,1,1.32-2Z"/><path class="cls-29" d="M66.44,113.56s3.15.49,3.49-.33a7.39,7.39,0,0,1,1-1.81c.27-.31,2-3.84,1.25-4.31s-1.57.56-1.83.82-3.15,2.86-3.15,2.86l-.74,2.77Z"/><path class="cls-28" d="M70.91,111.42c.24-.28,1.6-3.1,1.38-4a.9.9,0,0,0-.94.73,29.81,29.81,0,0,1-1.52,3.62c-.16.26-1.16,1.42-.93,1.94.48,0,.9-.13,1-.43a7.39,7.39,0,0,1,1-1.81Z"/><path class="cls-18" d="M43.4,73.46a2.12,2.12,0,0,0-1.78,2.33c.08,2.09,2,11.16,4.25,13s2.18-2.48,2.18-2.48S46.68,73,43.4,73.46Z"/><path class="cls-21" d="M46,90.68s-1.61,4.8-2.45,5.84c0,0,9.74,5.59,11.95,7.49,1.83,1.58,12.19,6.34,12.19,6.34a8.65,8.65,0,0,0-1,3.22s-9.27-.13-15.1-5.48c0,0-19.55-4.08-17.89-14.17A11.87,11.87,0,0,0,46,90.68Z"/><path class="cls-16" d="M38.12,74.18s-5.29,3-5.41,3.33-.73.65,1,4.76a13.21,13.21,0,0,1,.47,8.1,11.2,11.2,0,0,0-.57,3.47s2.05,4.4,7.9,2.25a16.31,16.31,0,0,0,5.07-4.87s-1.86-2.29-1.12-6.75,1.14-10.26-1.39-11c0,0-.65-.78-6,.74Z"/><path class="cls-30" d="M39.76,72.74s3.41,1.8,1.89,4.37l1.6.88s1.57-4.5-3.49-5.25Z"/><path class="cls-17" d="M37.57,70.94s1.44,2.17.3,3.64c-.63.82.86,2.77,3.41,2.61,0,0,1.14-.28,1-.69a2.5,2.5,0,0,1,.52-2.19c.4-.71-5.26-3.37-5.26-3.37Z"/><path class="cls-22" d="M37.87,74.58a.67.67,0,0,0-.13.34,4.82,4.82,0,0,1,2.79-1l-2.42-2.68-.25-.12-.07.24c.35.69.93,2.18.08,3.27Z"/><path class="cls-31" d="M42.31,76.5c-.24-1.49.11-1.47.52-2.19.11-.19-.24-.54-.8-.93a1.64,1.64,0,0,0-.41.47,4.61,4.61,0,0,0-.87,3.34,2.35,2.35,0,0,0,.53,0c.31,0,1.1-.23,1-.69Z"/><path class="cls-17" d="M37.05,69.72a7.48,7.48,0,0,0,2.6,4.18c1.75,1.16,3.8,1.92,4.17-.17.3-1.67,1.12-5.91-.35-6.76-1.9-1.1-2.59-2.45-4.78-1.64a3.56,3.56,0,0,0-1.64,4.39Z"/><path class="cls-23" d="M37.05,69.72a6.47,6.47,0,0,0,2.59,4.22,7.64,7.64,0,0,0,1.66.88,7.63,7.63,0,0,1-1.73-1.72c-.72-.83,1.06-.51-.15-2.64-.42-.73,1.61.21,2.07.2C44.19,70.59,44,69,44,68.39a5.44,5.44,0,0,0-.22-.8l-.26-.49L43.47,67a10.77,10.77,0,0,0-.88-1c-1.15,0-4.44.1-4.51.12s-.61.78-1.13,1.51a4.23,4.23,0,0,0,.1,2.09Z"/><path class="cls-25" d="M38.23,72.51a5.21,5.21,0,0,1-1.43-4.89,3.38,3.38,0,0,1,3-2.63,4,4,0,0,1,4.53,2.41c.29.78.09,2.47-3,1.68-.44-.11-1.59-.26-2,.11a1.58,1.58,0,0,0-.26,1.65c.17.51-.28.57-.34.46s-.65-1.58-1.2-1,.61,2.12.66,2.22Z"/><path class="cls-24" d="M38.23,72.51c0-.1-1.16-1.7-.66-2.22s1.13.9,1.2,1,.51,0,.34-.46a1.58,1.58,0,0,1,.26-1.65c.37-.34,1.38-.17,2-.11-.51-.32-1.51-.43-1.87-1.27A3,3,0,0,0,37.71,66a3.44,3.44,0,0,0-.91,1.66,5.21,5.21,0,0,0,1.43,4.89Z"/><path class="cls-30" d="M38.23,73.88a4.43,4.43,0,0,0,3.42,3.23l-.83,2s-5.22-2.61-2.59-5.25Z"/><path class="cls-25" d="M44.32,67.4s.44,2.78-3.09,1.77a4.05,4.05,0,0,1-2.47-2.11,1.62,1.62,0,0,0-1.16-1A3.73,3.73,0,0,1,41,64.91a6,6,0,0,1,2.63,1.38c.29.18-.18,1.34.72,1.11Z"/><path class="cls-17" d="M56,87.93a9.1,9.1,0,0,0,4.28-.25c1.74-.72,1.32-.78,1.18-1-.29-.57-2.58-.42-3-.53s.35-.45.53-.74.57-.63.43-.73-.49-.19-1.13.32A13.89,13.89,0,0,1,56,86.18v1.75Z"/><path class="cls-18" d="M56.34,85.93a4.55,4.55,0,0,0-.14,1.13,2.58,2.58,0,0,0,.37,1.31S48.27,90,46.16,89c0,0-2-3.14,1.08-4l9.1.94Z"/><polygon class="cls-32" points="40.49 96.53 40.45 96.96 46.63 101.34 46.66 100.92 40.49 96.53 40.49 96.53"/><polygon class="cls-33" points="46.66 100.92 46.63 101.34 58.13 96.03 58.17 95.6 46.66 100.92 46.66 100.92"/><polygon class="cls-34" points="40.49 96.53 46.66 100.92 58.17 95.6 52 91.22 40.49 96.53 40.49 96.53"/><polygon class="cls-35" points="48.5 93.61 48.04 93.19 46.13 100.89 46.59 101.32 48.5 93.61 48.5 93.61"/><polygon class="cls-36" points="60.53 88.05 60.07 87.63 48.04 93.19 48.5 93.61 60.53 88.05 60.53 88.05"/><polygon class="cls-37" points="48.5 93.61 46.59 101.32 58.62 95.76 60.53 88.05 48.5 93.61 48.5 93.61"/><polygon class="cls-38" points="48.5 93.61 48.5 93.61 58.62 95.76 60.53 88.05 48.5 93.61 48.5 93.61"/><path class="cls-17" d="M44,95.34s2.81,2.31,5.56,1.77c0,0,0-.71-1.23-1a2.14,2.14,0,0,1-1.67-1.34c0-.15,1-.23,1.39-.25s.94-.6-.1-.67a17.18,17.18,0,0,0-3.84-.24s-1,1.08-.11,1.71Z"/><path class="cls-18" d="M34.48,77a2.11,2.11,0,0,0-2.39,1.68c-.56,2-1.42,11.26.16,13.64s11.93,3.64,11.93,3.64a2.84,2.84,0,0,1,.31-2.87l-8.93-3.73S37.75,77.5,34.48,77Z"/><path class="cls-39" d="M35.56,89.32l8.93,3.73A3.08,3.08,0,0,0,44,94c-2-.65-9.53-1.76-9.35-3.37.9-8.32,1-12.67,1-12.67L36,79c.83,3.51-.43,10.34-.43,10.34Z"/></g></g></svg>