<svg xmlns="http://www.w3.org/2000/svg" viewBox="0 0 363.45 109.62"><defs><style>.cls-1{fill:#1c1c1c;}</style></defs><g id="Layer_2" data-name="Layer 2"><g id="Layer_1-2" data-name="Layer 1"><path class="cls-1" d="M157,28.62V77.9h-12V74.31q-3.52,4.18-10.56,4.19a17.94,17.94,0,0,1-9-2.29A16.5,16.5,0,0,1,119,69.66a19.83,19.83,0,0,1-2.36-9.83A19.65,19.65,0,0,1,119,50a16.38,16.38,0,0,1,6.41-6.48,18.13,18.13,0,0,1,9-2.26q6.45,0,10,3.72V28.62ZM142.42,66.18a9,9,0,0,0,2.12-6.35,8.82,8.82,0,0,0-2.09-6.24A7.06,7.06,0,0,0,137,51.33a7.17,7.17,0,0,0-5.45,2.26,8.74,8.74,0,0,0-2.12,6.24,9,9,0,0,0,2.12,6.35A7.09,7.09,0,0,0,137,68.47,7,7,0,0,0,142.42,66.18Z"/><path class="cls-1" d="M201.66,63.09H175.49a7.32,7.32,0,0,0,3.09,4.28,10.29,10.29,0,0,0,5.75,1.5,12.59,12.59,0,0,0,4.48-.73,13.55,13.55,0,0,0,3.82-2.39l6.64,6.9Q194,78.5,183.93,78.5a24.53,24.53,0,0,1-11.09-2.39,18.17,18.17,0,0,1-.4-32.41,22.59,22.59,0,0,1,19.92-.17A16.83,16.83,0,0,1,199.3,50a18.88,18.88,0,0,1,2.56,10C201.86,60.06,201.79,61.1,201.66,63.09ZM177.79,51.93a7.52,7.52,0,0,0-2.5,4.52H190a7.56,7.56,0,0,0-2.49-4.52,8,8,0,0,0-9.76,0Z"/><path class="cls-1" d="M245,41.9l-14.88,36h-13l-14.81-36h13l8.64,22,9.09-22Z"/><path class="cls-1" d="M251.81,77.47a23.43,23.43,0,0,1-7-2.69l3.78-8.64a21.44,21.44,0,0,0,5.85,2.43,26,26,0,0,0,6.71.89,10.63,10.63,0,0,0,4.35-.63A2,2,0,0,0,266.75,67c0-.8-.52-1.36-1.56-1.7a32.63,32.63,0,0,0-4.95-1A49.2,49.2,0,0,1,252.9,63a11.37,11.37,0,0,1-5.21-3.19,9.12,9.12,0,0,1-2.19-6.51,9.78,9.78,0,0,1,2.06-6.14,13.55,13.55,0,0,1,6-4.25A25.74,25.74,0,0,1,263,41.3a38.38,38.38,0,0,1,7.77.8,22.3,22.3,0,0,1,6.44,2.26l-3.78,8.57a21,21,0,0,0-10.36-2.66,10.28,10.28,0,0,0-4.39.7,2.06,2.06,0,0,0-1.39,1.82c0,.85.51,1.43,1.53,1.76a33.47,33.47,0,0,0,5,1,57.85,57.85,0,0,1,7.38,1.53,11.34,11.34,0,0,1,5.08,3.16,9,9,0,0,1,2.16,6.41,9.75,9.75,0,0,1-2.06,6.07A13.42,13.42,0,0,1,270.37,77a27.2,27.2,0,0,1-9.66,1.53A39.14,39.14,0,0,1,251.81,77.47Z"/><path class="cls-1" d="M291.59,76.11a17.84,17.84,0,0,1-9.9-16.28,17.76,17.76,0,0,1,9.87-16.17A22.66,22.66,0,0,1,302,41.3a22.9,22.9,0,0,1,10.49,2.36,17.69,17.69,0,0,1,7.24,6.58,17.92,17.92,0,0,1,2.59,9.59,18.09,18.09,0,0,1-2.59,9.63,17.85,17.85,0,0,1-7.24,6.65,24.08,24.08,0,0,1-20.92,0Zm15.87-9.93a9,9,0,0,0,2.13-6.35,8.75,8.75,0,0,0-2.13-6.24,7.69,7.69,0,0,0-10.89,0,8.74,8.74,0,0,0-2.12,6.24,9,9,0,0,0,2.12,6.35,7.62,7.62,0,0,0,10.89,0Z"/><path class="cls-1" d="M335.89,76.11a18.06,18.06,0,0,1,0-32.45,23.6,23.6,0,0,1,10.69-2.36,20.38,20.38,0,0,1,10.56,2.63,14.51,14.51,0,0,1,6.31,7.27l-9.76,5q-2.46-4.84-7.17-4.85a7.6,7.6,0,0,0-5.62,2.26,8.53,8.53,0,0,0-2.22,6.24,8.74,8.74,0,0,0,2.22,6.35,7.51,7.51,0,0,0,5.62,2.29q4.71,0,7.17-4.85l9.76,5a14.46,14.46,0,0,1-6.31,7.27,20.38,20.38,0,0,1-10.56,2.63A23.35,23.35,0,0,1,335.89,76.11Z"/><path class="cls-1" d="M89.1,18.21,63.38,3.36a25.14,25.14,0,0,0-25.11,0L12.56,18.21A25.13,25.13,0,0,0,0,40V69.65A25.11,25.11,0,0,0,12.56,91.4l25.71,14.85a25.09,25.09,0,0,0,25.11,0L89.1,91.4a25.11,25.11,0,0,0,12.56-21.75V40A25.13,25.13,0,0,0,89.1,18.21Zm-54.7,55h-.6q-8.13,0-8.13-6.43V54.5c0-1.65-.89-2.47-2.68-2.47h-.41A1.48,1.48,0,0,1,21,50.71v-.25a1.48,1.48,0,0,1,1.6-1.33H23c1.79,0,2.68-.82,2.68-2.47V34.38q0-6.44,8.13-6.43h.6A1.48,1.48,0,0,1,36,29.27v.2a1.48,1.48,0,0,1-1.6,1.33,5.13,5.13,0,0,0-3.39,1,3.64,3.64,0,0,0-1.12,2.91V46.61a4.41,4.41,0,0,1-.66,2.67,2.36,2.36,0,0,1-.38.4,1.17,1.17,0,0,0,0,1.8,2.08,2.08,0,0,1,.38.41,4.4,4.4,0,0,1,.66,2.66v12q0,3.87,4.51,3.87a1.83,1.83,0,0,1,1.13.38,1.23,1.23,0,0,1,.47.94v.21A1.48,1.48,0,0,1,34.4,73.22Zm1.18,4.15a1.72,1.72,0,0,1,.51-1.22,1.71,1.71,0,0,1,1.23-.51H56.94a1.73,1.73,0,1,1,0,3.45H37.32A1.73,1.73,0,0,1,35.58,77.37Zm5.06,6.38a1.76,1.76,0,0,1-1.23.51H38.18a1.73,1.73,0,1,1,0-3.45h1.23a1.73,1.73,0,0,1,1.73,1.73A1.71,1.71,0,0,1,40.64,83.75ZM57.3,88.92a1.74,1.74,0,0,1-1.22.51H45.58a1.74,1.74,0,0,1-1.73-1.73,1.68,1.68,0,0,1,.51-1.22A1.72,1.72,0,0,1,45.58,86h10.5a1.73,1.73,0,0,1,1.22,3Zm7.4-5.17a1.72,1.72,0,0,1-1.22.51H43.85a1.72,1.72,0,0,1-1.72-1.72,1.76,1.76,0,0,1,.51-1.23,1.71,1.71,0,0,1,1.21-.5H63.48a1.72,1.72,0,0,1,1.22,2.94Zm.86-5.16a1.71,1.71,0,0,1-1.22.5h-2.7a1.73,1.73,0,0,1-1.73-1.72,1.74,1.74,0,0,1,1.73-1.73h2.7a1.73,1.73,0,0,1,1.73,1.73A1.7,1.7,0,0,1,65.56,78.59ZM80.68,50.71A1.48,1.48,0,0,1,79.08,52h-.42C76.88,52,76,52.85,76,54.5V66.79q0,6.42-8.08,6.43h-.65a1.49,1.49,0,0,1-1.61-1.32v-.21a1.49,1.49,0,0,1,1.61-1.32,5.1,5.1,0,0,0,3.38-1,3.59,3.59,0,0,0,1.13-2.9v-12a4.47,4.47,0,0,1,.65-2.66,2.93,2.93,0,0,1,.38-.41,1.16,1.16,0,0,0,0-1.8,3.55,3.55,0,0,1-.38-.4,4.49,4.49,0,0,1-.65-2.67V34.67q0-3.87-4.51-3.87a1.74,1.74,0,0,1-1.13-.39,1.25,1.25,0,0,1-.48-.94v-.2A1.49,1.49,0,0,1,67.26,28h.65Q76,28,76,34.38V46.66c0,1.65.89,2.47,2.67,2.47h.42a1.48,1.48,0,0,1,1.6,1.33Z"/></g></g></svg>