<svg xmlns="http://www.w3.org/2000/svg" viewBox="0 0 364.18 109.62"><defs><style>.cls-1{font-size:66.42px;font-family:Montserrat-ExtraBold, Montserrat;font-weight:800;}.cls-1,.cls-5{fill:#444444;}.cls-2{letter-spacing:-0.01em;}.cls-3{letter-spacing:-0.01em;}.cls-4{letter-spacing:0em;}</style></defs><g id="Layer_2" data-name="Layer 2"><g id="Layer_1-2" data-name="Layer 1"><text class="cls-1" transform="translate(114.66 77.9)">d<tspan class="cls-2" x="46.36" y="0">e</tspan><tspan class="cls-3" x="88.33" y="0">v</tspan><tspan class="cls-4" x="128.92" y="0">soc</tspan></text><path class="cls-5" d="M89.1,18.21,63.38,3.36a25.14,25.14,0,0,0-25.11,0L12.56,18.21A25.13,25.13,0,0,0,0,40V69.65A25.11,25.11,0,0,0,12.56,91.4l25.71,14.85a25.09,25.09,0,0,0,25.11,0L89.1,91.4a25.11,25.11,0,0,0,12.56-21.75V40A25.13,25.13,0,0,0,89.1,18.21Zm-54.7,55h-.6q-8.13,0-8.13-6.43V54.5c0-1.65-.89-2.47-2.68-2.47h-.41A1.48,1.48,0,0,1,21,50.71v-.25a1.48,1.48,0,0,1,1.6-1.33H23c1.79,0,2.68-.82,2.68-2.47V34.38q0-6.44,8.13-6.43h.6A1.48,1.48,0,0,1,36,29.27v.2a1.48,1.48,0,0,1-1.6,1.33,5.13,5.13,0,0,0-3.39,1,3.64,3.64,0,0,0-1.12,2.91V46.61a4.41,4.41,0,0,1-.66,2.67,2.36,2.36,0,0,1-.38.4,1.17,1.17,0,0,0,0,1.8,2.08,2.08,0,0,1,.38.41,4.4,4.4,0,0,1,.66,2.66v12q0,3.87,4.51,3.87a1.83,1.83,0,0,1,1.13.38,1.23,1.23,0,0,1,.47.94v.21A1.48,1.48,0,0,1,34.4,73.22Zm1.18,4.15a1.72,1.72,0,0,1,.51-1.22,1.71,1.71,0,0,1,1.23-.51H56.94a1.73,1.73,0,1,1,0,3.45H37.32A1.73,1.73,0,0,1,35.58,77.37Zm5.06,6.38a1.76,1.76,0,0,1-1.23.51H38.18a1.73,1.73,0,1,1,0-3.45h1.23a1.73,1.73,0,0,1,1.73,1.73A1.71,1.71,0,0,1,40.64,83.75ZM57.3,88.92a1.74,1.74,0,0,1-1.22.51H45.58a1.74,1.74,0,0,1-1.73-1.73,1.68,1.68,0,0,1,.51-1.22A1.72,1.72,0,0,1,45.58,86h10.5a1.73,1.73,0,0,1,1.22,3Zm7.4-5.17a1.72,1.72,0,0,1-1.22.51H43.85a1.72,1.72,0,0,1-1.72-1.72,1.76,1.76,0,0,1,.51-1.23,1.71,1.71,0,0,1,1.21-.5H63.48a1.72,1.72,0,0,1,1.22,2.94Zm.86-5.16a1.71,1.71,0,0,1-1.22.5h-2.7a1.73,1.73,0,0,1-1.73-1.72,1.74,1.74,0,0,1,1.73-1.73h2.7a1.73,1.73,0,0,1,1.73,1.73A1.7,1.7,0,0,1,65.56,78.59ZM80.68,50.71A1.48,1.48,0,0,1,79.08,52h-.42C76.88,52,76,52.85,76,54.5V66.79q0,6.42-8.08,6.43h-.65a1.49,1.49,0,0,1-1.61-1.32v-.21a1.49,1.49,0,0,1,1.61-1.32,5.1,5.1,0,0,0,3.38-1,3.59,3.59,0,0,0,1.13-2.9v-12a4.47,4.47,0,0,1,.65-2.66,2.93,2.93,0,0,1,.38-.41,1.16,1.16,0,0,0,0-1.8,3.55,3.55,0,0,1-.38-.4,4.49,4.49,0,0,1-.65-2.67V34.67q0-3.87-4.51-3.87a1.74,1.74,0,0,1-1.13-.39,1.25,1.25,0,0,1-.48-.94v-.2A1.49,1.49,0,0,1,67.26,28h.65Q76,28,76,34.38V46.66c0,1.65.89,2.47,2.67,2.47h.42a1.48,1.48,0,0,1,1.6,1.33Z"/></g></g></svg>