<svg xmlns="http://www.w3.org/2000/svg" viewBox="0 0 216.99 98.11"><defs><style>.cls-1{fill:#edd920;}</style></defs><g id="Layer_2" data-name="Layer 2"><g id="Layer_1-2" data-name="Layer 1"><path class="cls-1" d="M39.53,49.05A12.15,12.15,0,0,1,36,57.7a12.31,12.31,0,0,1-8.7,3.63h-8.8a12.28,12.28,0,1,1,0-24.55h8.8A12.26,12.26,0,0,1,39.53,49.05Z"/><path class="cls-1" d="M158.13,85.83a12.13,12.13,0,0,1-3.58,8.65,12.27,12.27,0,0,1-8.69,3.63H71.14a12.3,12.3,0,0,1,0-24.6h74.72A12.3,12.3,0,0,1,158.13,85.83Z"/><path class="cls-1" d="M12.32,24.55A12.28,12.28,0,1,1,12.32,0H152a12.28,12.28,0,0,1,0,24.55Z"/><path class="cls-1" d="M210.86,49.05a12.39,12.39,0,0,1-12.33,12.28H58.86a12.28,12.28,0,0,1,0-24.55H198.53A12.27,12.27,0,0,1,210.86,49.05Z"/><path class="cls-1" d="M217,12.28a12.29,12.29,0,0,1-12.32,12.27H185.44a12.28,12.28,0,1,1,0-24.55h19.23A12.3,12.3,0,0,1,217,12.28Z"/></g></g></svg>