<svg xmlns="http://www.w3.org/2000/svg" viewBox="0 0 465.35 185.8"><defs><style>.cls-1{fill:#34455c;}.cls-2{fill:#47c9c6;}</style></defs><g id="Layer_2" data-name="Layer 2"><g id="Layer_1-2" data-name="Layer 1"><path class="cls-1" d="M214,44.93a21.36,21.36,0,0,1-6.32-2.21l4.79-9.46A19.64,19.64,0,0,0,218,35.54a25,25,0,0,0,6.11.79q4.11,0,4.11-1.59c0-.45-.36-.79-1.07-1a23.9,23.9,0,0,0-3.41-.64,44.71,44.71,0,0,1-6.14-1.32,10.33,10.33,0,0,1-4.42-2.7,7.32,7.32,0,0,1-1.9-5.37,10.45,10.45,0,0,1,5.28-9.45Q221.87,11,230.21,11a38,38,0,0,1,7.09.65,25.6,25.6,0,0,1,6,1.87L238.56,23a19.7,19.7,0,0,0-10-2.51,7.74,7.74,0,0,0-3.22.49c-.68.33-1,.71-1,1.16s.35.79,1.05,1a28.65,28.65,0,0,0,3.56.76,44,44,0,0,1,6,1.32,10.23,10.23,0,0,1,4.36,2.7,7.31,7.31,0,0,1,1.87,5.31,10.19,10.19,0,0,1-2.48,6.91A15,15,0,0,1,232,44.37a30.25,30.25,0,0,1-9.54,1.42A40.59,40.59,0,0,1,214,44.93Z"/><path class="cls-1" d="M278,12.83a13.89,13.89,0,0,1,5.18,5.37,16.6,16.6,0,0,1,2,8.31,20,20,0,0,1-2.43,9.82,18.19,18.19,0,0,1-6.53,6.94,16.75,16.75,0,0,1-8.9,2.52q-6.77,0-9.58-4.18l-3.13,15.47H240.71l9.08-45.48h13.08l-.62,3.07A12.61,12.61,0,0,1,271.34,11,13.09,13.09,0,0,1,278,12.83ZM269.4,32.77a8.58,8.58,0,0,0,1.69-5.58,5.46,5.46,0,0,0-1.32-3.84,4.71,4.71,0,0,0-3.65-1.44A5.4,5.4,0,0,0,261.73,24,8.64,8.64,0,0,0,260,29.58a5.46,5.46,0,0,0,1.32,3.84A4.72,4.72,0,0,0,265,34.86,5.34,5.34,0,0,0,269.4,32.77Z"/><path class="cls-1" d="M296.13,43.85a14.33,14.33,0,0,1-8.59-13.59,18.41,18.41,0,0,1,2.7-9.85,19,19,0,0,1,7.46-6.91,24.57,24.57,0,0,1,20.41-.58,14.33,14.33,0,0,1,8.59,13.59,18.38,18.38,0,0,1-2.7,9.85,19,19,0,0,1-7.46,6.91,24.57,24.57,0,0,1-20.41.58ZM311,32.77a8.63,8.63,0,0,0,1.68-5.58,5.46,5.46,0,0,0-1.32-3.84,4.69,4.69,0,0,0-3.65-1.44A5.4,5.4,0,0,0,303.28,24a8.63,8.63,0,0,0-1.68,5.58,5.46,5.46,0,0,0,1.32,3.84,4.69,4.69,0,0,0,3.65,1.44A5.37,5.37,0,0,0,311,32.77Z"/><path class="cls-1" d="M358.43,11,356,23.26a19.6,19.6,0,0,0-3-.25,9.1,9.1,0,0,0-5.62,1.57,8.19,8.19,0,0,0-2.79,5.06l-3.13,15.53H327.56l6.69-33.57h13.07L346.65,15Q350.76,11,358.43,11Z"/><path class="cls-1" d="M374.51,32a7.53,7.53,0,0,0-.12,1c0,1.55.86,2.33,2.58,2.33a7.49,7.49,0,0,0,3.07-.8l1.59,9.33a18.64,18.64,0,0,1-9.08,2q-5.71,0-9-2.74a9.45,9.45,0,0,1-3.29-7.7,15.47,15.47,0,0,1,.37-3.31l1.72-8.47h-4.67l2-10.13h4.6l1.91-9.39H380.1l-1.91,9.39h6.88l-2,10.13h-6.87Z"/><path class="cls-1" d="M390.29,44.93A21.54,21.54,0,0,1,384,42.72l4.79-9.46a19.82,19.82,0,0,0,5.56,2.28,24.92,24.92,0,0,0,6.1.79c2.74,0,4.12-.53,4.12-1.59q0-.68-1.08-1a23.61,23.61,0,0,0-3.41-.64,44.53,44.53,0,0,1-6.13-1.32,10.33,10.33,0,0,1-4.42-2.7,7.32,7.32,0,0,1-1.9-5.37,10.44,10.44,0,0,1,5.27-9.45Q398.14,11,406.49,11a38.08,38.08,0,0,1,7.09.65,25.51,25.51,0,0,1,6,1.87L414.84,23a19.73,19.73,0,0,0-10-2.51,7.81,7.81,0,0,0-3.22.49c-.67.33-1,.71-1,1.16s.34.79,1,1a29.09,29.09,0,0,0,3.56.76,44.13,44.13,0,0,1,6.05,1.32,10.2,10.2,0,0,1,4.35,2.7,7.31,7.31,0,0,1,1.88,5.31A10.15,10.15,0,0,1,415,40.11a15,15,0,0,1-6.75,4.26,30.36,30.36,0,0,1-9.55,1.42A40.56,40.56,0,0,1,390.29,44.93Z"/><path class="cls-1" d="M252,63.6l-6.69,33.57H232.24l.61-3.07a12.57,12.57,0,0,1-9.08,3.69,13.09,13.09,0,0,1-6.63-1.85A13.84,13.84,0,0,1,212,90.57a16.59,16.59,0,0,1-2-8.31,20.13,20.13,0,0,1,2.42-9.82,18.29,18.29,0,0,1,6.54-6.94,16.73,16.73,0,0,1,8.9-2.52q6.75,0,9.58,4.18l.73-3.56ZM225.34,85.42A4.68,4.68,0,0,0,229,86.86a5.37,5.37,0,0,0,4.39-2.09,8.63,8.63,0,0,0,1.68-5.58,5.46,5.46,0,0,0-1.32-3.84,4.69,4.69,0,0,0-3.65-1.44A5.4,5.4,0,0,0,225.7,76,8.63,8.63,0,0,0,224,81.58,5.42,5.42,0,0,0,225.34,85.42Z"/><path class="cls-1" d="M295.64,63.6,290.3,90.42q-2,10-7.76,14.64t-15.19,4.63q-10.32,0-16.64-4.17l5.9-9.45a15.53,15.53,0,0,0,5,2.42,20.88,20.88,0,0,0,6,.89q3.87,0,5.8-1.59A7.9,7.9,0,0,0,275.94,93l.19-.86a12,12,0,0,1-8.47,3.19,15,15,0,0,1-7.12-1.75,13.58,13.58,0,0,1-5.34-5.06,14.43,14.43,0,0,1-2-7.67,17.54,17.54,0,0,1,2.39-9A18,18,0,0,1,271.21,63q7.92,0,10.26,5.71l1-5.09ZM268.48,83.27a5.14,5.14,0,0,0,3.59,1.2,5.7,5.7,0,0,0,4.33-1.72A6.32,6.32,0,0,0,278,78.21a4,4,0,0,0-1.29-3.1,5,5,0,0,0-3.56-1.2,5.78,5.78,0,0,0-4.36,1.72,6.28,6.28,0,0,0-1.66,4.54A4,4,0,0,0,268.48,83.27Z"/><path class="cls-1" d="M333.7,83.61H310.19a4.27,4.27,0,0,0,2,3,8.88,8.88,0,0,0,4.41.92,11.87,11.87,0,0,0,7.31-2.34l5.77,8.41A25.47,25.47,0,0,1,315,97.79a23.21,23.21,0,0,1-9.67-1.91,14.86,14.86,0,0,1-6.5-5.4,14.56,14.56,0,0,1-2.31-8.22,19,19,0,0,1,2.61-9.92,18.24,18.24,0,0,1,7.34-6.87A23,23,0,0,1,317.37,63a20.78,20.78,0,0,1,9.15,1.88,13.58,13.58,0,0,1,5.89,5.21,14.59,14.59,0,0,1,2,7.71A25.07,25.07,0,0,1,333.7,83.61ZM313,73.63a7.14,7.14,0,0,0-2.24,3.29h11a4.18,4.18,0,0,0-1.35-3.29,5.3,5.3,0,0,0-3.62-1.19A5.91,5.91,0,0,0,313,73.63Z"/><path class="cls-1" d="M372.7,65.93c2.19,2,3.29,4.79,3.29,8.47a22.18,22.18,0,0,1-.43,4.24l-3.69,18.53H358l3.38-16.88a15,15,0,0,0,.24-2c0-2.42-1.16-3.62-3.49-3.62q-4.92,0-6.2,6.38l-3.26,16.14H334.8l6.69-33.57h13.08L353.89,67a14.07,14.07,0,0,1,4.76-3A14.86,14.86,0,0,1,364,63,12.61,12.61,0,0,1,372.7,65.93Z"/><path class="cls-1" d="M424.72,51.63l-9.08,45.54H402.56l.62-3.07a12.54,12.54,0,0,1-9,3.69,13,13,0,0,1-6.62-1.85,13.84,13.84,0,0,1-5.19-5.37,16.6,16.6,0,0,1-2-8.31,20,20,0,0,1,2.43-9.82,18.14,18.14,0,0,1,6.54-6.94,16.7,16.7,0,0,1,8.9-2.52q6.69,0,9.57,4.12l3.07-15.47Zm-29,33.79a4.71,4.71,0,0,0,3.65,1.44,5.37,5.37,0,0,0,4.39-2.09,8.58,8.58,0,0,0,1.69-5.58,5.46,5.46,0,0,0-1.32-3.84,4.71,4.71,0,0,0-3.65-1.44A5.38,5.38,0,0,0,396.09,76a8.58,8.58,0,0,0-1.69,5.58A5.46,5.46,0,0,0,395.72,85.42Z"/><path class="cls-1" d="M465.35,63.6l-6.69,33.57H445.59l.61-3.07a12.57,12.57,0,0,1-9.08,3.69,13.09,13.09,0,0,1-6.63-1.85,13.84,13.84,0,0,1-5.19-5.37,16.59,16.59,0,0,1-2-8.31,20.13,20.13,0,0,1,2.42-9.82,18.29,18.29,0,0,1,6.54-6.94,16.73,16.73,0,0,1,8.9-2.52q6.75,0,9.57,4.18l.74-3.56ZM438.68,85.42a4.72,4.72,0,0,0,3.66,1.44,5.34,5.34,0,0,0,4.38-2.09,8.58,8.58,0,0,0,1.69-5.58,5.46,5.46,0,0,0-1.32-3.84,4.69,4.69,0,0,0-3.65-1.44A5.4,5.4,0,0,0,439.05,76a8.64,8.64,0,0,0-1.69,5.58A5.46,5.46,0,0,0,438.68,85.42Z"/><path class="cls-2" d="M145.63,79.73c-10.9,0-21.81,0-32.71,0a7.34,7.34,0,0,0-5.66,2.38Q58.18,132.27,9,182.4c-.75.76-1.47,1.55-2.26,2.26a3.81,3.81,0,0,1-5.25.18,3.82,3.82,0,0,1-.89-5.18c.7-1.17,1.51-2.28,2.28-3.41L99.21,35c1.77-2.59,2.3-2.73,5.11-1.32l60.13,30c2.39,1.19,2.43,1.18,3.91-1q7.48-10.92,15-21.82c1.6-2.33,3.79-3.1,6.17-2.26a5.05,5.05,0,0,1,3.14,6.76q-3.91,11.6-7.88,23.18c-1.06,3.12-2.18,6.22-3.17,9.36a2.25,2.25,0,0,1-2.52,1.82c-11.15,0-22.31,0-33.46,0Z"/><path class="cls-2" d="M114.92,107.38c7.65,0,15.25.37,22.9.38a7.73,7.73,0,0,1,2.1.21,3.09,3.09,0,0,1,1.45,5.1A7.43,7.43,0,0,1,140,114.2q-35,24.37-70,48.72c-.3.2-.58.41-.89.59a3.08,3.08,0,0,1-4.12-.55,3,3,0,0,1,.19-4.24c1.94-1.93,4-3.79,6-5.66Q82.23,142.53,93.42,132c1.22-1.14,1.92-2.37,1.34-4-.49-1.42-1.64-2-3.69-2.06L80,125.83c-1.61,0-3.06-.33-3.74-2s.1-2.9,1.25-4.06q5.34-5.42,10.6-10.91a4.51,4.51,0,0,1,3.51-1.46c7.75,0,15.51,0,23.27,0C114.86,107.52,114.92,107.26,114.92,107.38Z"/><path class="cls-2" d="M27.52,41.79a18.65,18.65,0,0,1,.86-2.47q8.23-16.2,16.51-32.38c1-1.91,1.62-2.13,3.49-1.19L94,28.5c2,1,2.25,1.84,1,3.69Q88.62,41.51,82.27,50.8c-1.55,2.28-2.38,2.34-4.18.3L55.8,25.93c-.34-.38-.67-.77-1-1.13-1.16-1.15-2.18-1.11-3.19.21-1.75,2.29-3.45,4.63-5.18,7C43.2,36.27,40,40.61,36.75,44.87A5,5,0,0,1,28,43.7,13.43,13.43,0,0,1,27.52,41.79Z"/><path class="cls-2" d="M152.15,19.1a19.17,19.17,0,0,1-38.34.14,19.17,19.17,0,0,1,38.34-.14Z"/></g></g></svg>