<svg id="Layer_1" data-name="Layer 1" xmlns="http://www.w3.org/2000/svg" viewBox="0 0 1140.98 481.18"><defs><style>.cls-1{fill:#fbfbfb;}.cls-2{fill:#fafafa;}.cls-3{fill:#f9f9f9;}.cls-4{fill:#e25b36;}.cls-5{fill:#969696;}.cls-6{fill:#d4ded2;}.cls-7{fill:#020202;}.cls-8{fill:#e1e1e1;}</style></defs><title>Artboard 1</title><path class="cls-1" d="M643.51,175.5C705.43,211.83,738,280.66,725,348c-13.09,67.93-66.63,121.34-131.46,131.12-73.55,11.09-139.42-22-174.48-87.58,1-3.51-.95-6.34-2-9.42-9.33-26.45-13.93-53.13-10.21-81.61C420.29,197.29,525,132.65,622.72,167.69,629.7,170.19,635.43,176,643.51,175.5Zm-9.14,26.14-1.25-1.15,1.15,1.25c1.18,2.29,3.27,2.82,5.6,2.91,1,6.45,4.73,10.19,11.09,11.41l3.91,3.75,1.26-1.77-4.58-2.64c-1.2-6.41-5-10.05-11.49-11C638.83,202.13,636.72,201.64,634.37,201.64ZM520.92,302.25c.07,7.93,6,7.29,11,6.9,5.63-.44,9.88-3.83,10.8-9.54,1-5.93-.56-11.19-7.43-13-6.24-5-11.41-1.8-15.25,3C516.93,293.42,514.56,298.5,520.92,302.25ZM545.29,343c-5-5-9.91-3.66-14.43.49s-5.58,9.23-1.62,14.59c1.67,7.17,7.13,7.87,12.9,7a11,11,0,0,0,9.37-9.1C552.64,350.39,552.91,344.65,545.29,343Zm58.53-11.45c-4.85-4.8-9.46-2.32-13.14,1.23-4,3.88-7.1,8.65-2,14.2,1.59,7.43,7.35,8.05,13.1,7.15,5-.79,8.4-4.58,9.42-9.5C612.41,338.5,610.68,333.44,603.82,331.56Zm-8.36-53.87c-4.46-7.05-9.9-4.27-14.23-.53-5,4.33-7.5,9.86-.85,15.35,5.39,10.53,12.84,8,18.8,1.61C604.73,288.14,604.69,281.36,595.46,277.69Zm68.19-46.11c30.14,52.53,35.17,104-.41,156.34-35,51.53-84.51,66.38-143.78,59.08,50.28,24.77,137.85-1.1,169.76-70.86C714.22,321.48,695.41,253.14,663.65,231.58Z"/><path class="cls-2" d="M1016.65,170.57c37.21-.23,69.81,6.62,101.93,16.57,7.54,2.34,9.46,5,5.9,12.92-9.83,21.88-19.08,44.07-27.57,66.5-3.56,9.39-8.13,9-16,6.11-15.43-5.66-30.54-12.42-46.86-15.43-7.15-1.32-15.81-2.41-18.11,5.58-2,7,5.55,11.23,11.65,14,9.52,4.37,19.76,5.68,30.12,6.72,45.23,4.54,75.39,29.58,81.85,68.93,5.83,35.43-6.93,64-35.45,85.16-44.71,33.19-95,40.9-148.93,31.61-28.08-4.85-54.82-13.36-80-26.79-7.26-3.86-10.34-7.15-5.69-16.09,11.5-22.1,21.84-44.82,32.15-67.51,3.59-7.89,6.67-9.52,14.33-3.94,15.7,11.42,32.79,20.87,52.29,23.64,9.86,1.4,24.37,3.76,26.79-8.53,2.7-13.68-12.49-14.4-22-16.21-24.16-4.63-45.38-15.61-65.29-29.05-23.55-15.9-31.44-39.05-26.34-66.64,7.94-42.87,36.09-66.55,75.86-78.82C977.74,173.05,998.63,169.82,1016.65,170.57Z"/><path class="cls-1" d="M209.09,370.86c0-24.51-.39-49,.18-73.52.22-9.52-2.15-13.1-12.46-13.07-31.15.1-31.15-.35-31.15-31.72,0-22.15.32-44.31-.2-66.45-.2-8.78,1.67-12.26,11.55-12.24,32.11.06,32.11-.4,32.1-31.92,0-17,.42-33.95-.2-50.89-.34-9.35,1.81-13.35,12.3-13.18,38.17.59,76.36.48,114.53,0,8.68-.1,11.42,2.49,11.25,11.17-.5,24.5.26,49-.4,73.51-.25,9.46,2.72,11.82,11.93,11.77,27.94-.15,27.94.26,27.94,27.68,0,23.57-.35,47.14.18,70.69.21,9-2.08,12.15-11.68,12.1-28.14-.13-28.15.33-28.15,29,0,43.36-.26,86.72.2,130.08.1,9.81-1.4,14.09-12.84,13.85-37.69-.8-75.41-.55-113.11-.11-9.12.1-12.38-2.4-12.16-11.88C209.48,420.83,209.1,395.84,209.09,370.86Z"/><path class="cls-3" d="M7,316c0-43.37.26-86.75-.2-130.12-.1-9.37,2.7-12.06,12-12q58.69.71,117.4,0c9.85-.14,11.55,3.53,11.52,12.32q-.44,129.42,0,258.84c0,9.82-2.63,12.85-12.59,12.71q-58-.81-116,0c-10.35.15-12.46-3.6-12.37-13.07C7.21,401.8,7,358.9,7,316Z"/><path class="cls-4" d="M858.05,58c19.33,0,38.66.26,58-.08,10.1-.17,14.07,1.41,8.26,12.53-29.25,55.92-58.48,111.87-86.4,168.47C830,254.8,821.43,262.74,802.64,261c-21-2-42.39-.85-63.6-.43-9.42.19-12.7-1.77-9.55-12q27.59-89.76,54.12-179.83c2.47-8.37,6.71-11.09,15-10.91C818.44,58.23,838.25,57.94,858.05,58Z"/><path class="cls-3" d="M81.48,137.16C32.55,137.32-1.72,105,.07,63.88.93,44.06,10.9,29.06,25.93,17.27c27.9-21.88,70.25-23.15,99.28-2.78C147.37,30,158.88,51.08,154.07,78.74c-5.08,29.19-24.51,45.7-51.29,54.54C94.84,135.9,86.18,136.35,81.48,137.16Z"/><path class="cls-5" d="M643.51,175.5c-8.08.52-13.81-5.31-20.79-7.81-97.77-35-202.43,29.6-215.91,132.77-3.72,28.48.88,55.16,10.21,81.61,1.08,3.08,3,5.91,2,9.42-19.86-29-24.15-61.73-21-95.55,10.51-112.52,135.43-180.11,235.59-127.75C637.23,170.06,641.88,170.85,643.51,175.5Z"/><path class="cls-6" d="M663.65,231.58c31.76,21.56,50.57,89.9,25.57,144.56C657.31,445.9,569.74,471.77,519.46,447c59.27,7.3,108.74-7.55,143.78-59.08C698.82,335.61,693.79,284.11,663.65,231.58Z"/><path class="cls-7" d="M580.38,292.51c-6.65-5.49-4.17-11,.85-15.35,4.33-3.74,9.77-6.52,14.23.53C593.44,285.69,588.31,290.52,580.38,292.51Z"/><path class="cls-5" d="M603.82,331.56c6.86,1.88,8.59,6.94,7.33,13.08-1,4.92-4.45,8.71-9.42,9.5-5.75.9-11.51.28-13.1-7.15C598.49,346.57,603.35,341.22,603.82,331.56Z"/><path class="cls-5" d="M545.29,343c7.62,1.64,7.35,7.38,6.22,13a11,11,0,0,1-9.37,9.1c-5.77.89-11.23.19-12.9-7C538.32,357,543.39,351.71,545.29,343Z"/><path class="cls-5" d="M535.24,286.61c6.87,1.81,8.39,7.07,7.43,13-.92,5.71-5.17,9.1-10.8,9.54-4.93.39-10.88,1-11-6.9C529.69,300.7,534.58,295.59,535.24,286.61Z"/><path class="cls-5" d="M580.38,292.51c7.93-2,13.06-6.82,15.08-14.82,9.23,3.67,9.27,10.45,3.72,16.43C593.22,300.53,585.77,303,580.38,292.51Z"/><path class="cls-7" d="M535.24,286.61c-.66,9-5.55,14.09-14.32,15.64-6.36-3.75-4-8.83-.93-12.65C523.83,284.81,529,281.61,535.24,286.61Z"/><path class="cls-7" d="M545.29,343c-1.9,8.7-7,14-16,15.08-4-5.36-3-10.33,1.62-14.59S540.31,338,545.29,343Z"/><path class="cls-7" d="M603.82,331.56c-.47,9.66-5.33,15-15.19,15.43-5-5.55-2-10.32,2-14.2C594.36,329.24,599,326.76,603.82,331.56Z"/><path class="cls-8" d="M651,216.06c-6.36-1.22-10.13-5-11.09-11.42l.19-.22c6.44.93,10.29,4.57,11.49,11Z"/><path class="cls-6" d="M651.55,215.4l4.58,2.64-1.26,1.77L651,216.06Z"/><path class="cls-8" d="M634.37,201.64c2.35,0,4.46.49,5.69,2.78l-.19.22c-2.33-.08-4.42-.61-5.6-2.9Z"/><path class="cls-8" d="M634.27,201.74l-1.15-1.25,1.25,1.15Z"/></svg>