<svg xmlns="http://www.w3.org/2000/svg" viewBox="0 0 465.35 192.8"><defs><style>.cls-1{font-size:61.38px;fill:#34455c;font-family:Montserrat-BlackItalic, Montserrat;font-weight:800;font-style:italic;}.cls-2{letter-spacing:0.02em;}.cls-3{letter-spacing:0.01em;}.cls-4{fill:#47c9c6;}</style></defs><g id="Layer_2" data-name="Layer 2"><g id="Layer_1-2" data-name="Layer 1"><text class="cls-1" transform="translate(208.73 52.17)">spo<tspan class="cls-2" x="119.13" y="0">r</tspan><tspan x="148.04" y="0">ts</tspan><tspan x="0" y="52">age</tspan><tspan class="cls-3" x="126.38" y="52">n</tspan><tspan x="170.08" y="52">da</tspan></text><path class="cls-4" d="M145.63,86.73c-10.9,0-21.81,0-32.71,0a7.34,7.34,0,0,0-5.66,2.38Q58.18,139.27,9,189.4c-.75.76-1.47,1.55-2.26,2.26a3.81,3.81,0,0,1-5.25.18,3.82,3.82,0,0,1-.89-5.18c.7-1.17,1.51-2.28,2.28-3.41L99.21,42c1.77-2.59,2.3-2.73,5.11-1.33l60.13,30c2.39,1.19,2.43,1.18,3.91-1q7.48-10.92,15-21.82c1.6-2.33,3.79-3.1,6.17-2.27a5.07,5.07,0,0,1,3.14,6.77q-3.91,11.6-7.88,23.18c-1.06,3.12-2.18,6.22-3.17,9.36a2.25,2.25,0,0,1-2.52,1.82c-11.15,0-22.31,0-33.46,0Z"/><path class="cls-4" d="M114.92,114.38c7.65,0,15.25.37,22.9.38a7.73,7.73,0,0,1,2.1.21,3.09,3.09,0,0,1,1.45,5.1A7.84,7.84,0,0,1,140,121.2l-70,48.72c-.3.2-.58.41-.89.59a3.08,3.08,0,0,1-4.12-.55,3,3,0,0,1,.19-4.24c1.94-1.93,4-3.79,6-5.66Q82.23,149.53,93.42,139c1.22-1.14,1.92-2.37,1.34-4-.49-1.42-1.64-2-3.69-2.06L80,132.83c-1.61,0-3.06-.33-3.74-2s.1-2.89,1.25-4q5.34-5.42,10.6-10.91a4.51,4.51,0,0,1,3.51-1.46c7.75,0,15.51,0,23.27,0C114.86,114.52,114.92,114.26,114.92,114.38Z"/><path class="cls-4" d="M27.52,48.79a18.65,18.65,0,0,1,.86-2.47q8.23-16.2,16.51-32.38c1-1.91,1.62-2.13,3.49-1.19L94,35.5c2,1,2.25,1.84,1,3.69Q88.62,48.51,82.27,57.8c-1.55,2.28-2.38,2.34-4.18.3L55.8,32.93c-.34-.38-.67-.77-1-1.13-1.16-1.15-2.18-1.11-3.19.21-1.75,2.29-3.45,4.63-5.18,7C43.2,43.27,40,47.61,36.75,51.87A5,5,0,0,1,28,50.7,13.78,13.78,0,0,1,27.52,48.79Z"/><path class="cls-4" d="M152.15,26.09a19.17,19.17,0,0,1-38.34.15,19.17,19.17,0,0,1,38.34-.15Z"/></g></g></svg>